<svg width="65" height="45" viewBox="0 0 65 45" fill="none" xmlns="http://www.w3.org/2000/svg">
<path d="M56.316 0.5H8.5C4.08172 0.5 0.5 4.08172 0.5 8.5V35.969C0.5 40.3873 4.08172 43.969 8.5 43.969H56.316C60.7343 43.969 64.316 40.3873 64.316 35.969V8.5C64.316 4.08172 60.7343 0.5 56.316 0.5Z" fill="white" stroke="#D9D9D9"/>
<path fill-rule="evenodd" clip-rule="evenodd" d="M19.6905 30.1108H15.7685L12.8275 18.8908C12.7734 18.6429 12.6678 18.4091 12.5176 18.2046C12.3674 18.0002 12.1759 17.8295 11.9555 17.7038C10.8213 17.1311 9.60787 16.731 8.35547 16.5168V16.0808H14.6735C15.0687 16.079 15.4513 16.2195 15.7515 16.4765C16.0517 16.7335 16.2494 17.09 16.3085 17.4808L17.8345 25.5748L21.7545 16.0748H25.5675L19.6905 30.1108ZM27.7525 30.1108H24.0525L27.1024 16.0838H30.8025L27.7525 30.1108ZM35.5945 19.9698C35.6547 19.6168 35.8448 19.2991 36.1273 19.0791C36.4099 18.8591 36.7645 18.7527 37.1215 18.7808C38.3578 18.669 39.6014 18.8925 40.7215 19.4278L41.3755 16.4078C40.2994 15.9851 39.1545 15.7651 37.9985 15.7588C34.3985 15.7588 31.7875 17.7018 31.7875 20.3988C31.7875 22.4508 33.6405 23.5278 34.9485 24.1768C36.3635 24.8238 36.9085 25.2558 36.7995 25.9028C36.7995 26.8738 35.7095 27.3028 34.6215 27.3028C33.3037 27.287 32.0043 26.9926 30.8085 26.4388L30.1544 29.4608C31.4367 29.9707 32.8056 30.2275 34.1855 30.2168C38.2165 30.3238 40.7215 28.3818 40.7215 25.4688C40.7215 21.7998 35.6005 21.5848 35.6005 19.9688L35.5945 19.9698ZM53.6785 30.1108L50.7385 16.0808H47.5795C47.2455 16.0837 46.9203 16.1886 46.6476 16.3815C46.3749 16.5743 46.1676 16.8459 46.0535 17.1598L40.6075 30.1078H44.4205L45.1815 28.0588H49.8665L50.3025 30.1078L53.6785 30.1108ZM48.1235 19.8608L49.2115 25.1478H46.1615L48.1235 19.8608Z" fill="#172B85"/>
</svg>
