<svg width="65" height="45" viewBox="0 0 65 45" fill="none" xmlns="http://www.w3.org/2000/svg">
<g clip-path="url(#clip0_1_500)">
<path d="M56.316 0.5H8.5C4.08172 0.5 0.5 4.08172 0.5 8.5V35.969C0.5 40.3873 4.08172 43.969 8.5 43.969H56.316C60.7343 43.969 64.316 40.3873 64.316 35.969V8.5C64.316 4.08172 60.7343 0.5 56.316 0.5Z" fill="white" stroke="#D9D9D9"/>
<path d="M36.357 25.5871C35.6071 25.5644 34.8765 25.3437 34.2393 24.9475C33.6022 24.5513 33.0811 23.9937 32.729 23.3311C32.3763 23.9934 31.855 24.5508 31.2177 24.9469C30.5805 25.3431 29.85 25.5639 29.1 25.5871H29.075C28.2485 25.5485 27.4501 25.2756 26.773 24.8001C26.0958 24.3247 25.568 23.6664 25.251 22.9021V22.8911L19 9.58814L26.973 5.86914L32.721 18.0551L38.408 5.86914L46.378 9.58514L40.209 22.9041C39.892 23.6684 39.3642 24.3267 38.687 24.8021C38.0099 25.2776 37.2115 25.5505 36.385 25.5891H36.36M34.56 21.9591C34.7018 22.3325 34.9458 22.6584 35.2641 22.8996C35.5824 23.1408 35.9622 23.2876 36.36 23.3231H36.368C36.7699 23.2844 37.1524 23.1322 37.4711 22.8843C37.7898 22.6364 38.0315 22.3031 38.168 21.9231L43.378 10.6851L39.512 8.88514L33.982 20.7231L34.567 21.9591H34.56ZM27.3 21.9231C27.4358 22.3022 27.6763 22.635 27.9937 22.8828C28.3111 23.1307 28.6923 23.2833 29.093 23.3231H29.1C29.4973 23.2873 29.8765 23.1407 30.1947 22.9002C30.5129 22.6596 30.7572 22.3346 30.9 21.9621L31.474 20.7321L25.884 8.87914L22.021 10.6791L27.3 21.9181V21.9231Z" fill="#1F263A"/>
<path d="M11.7901 36.3374C12.0524 36.3187 12.303 36.2219 12.5096 36.0593C12.7162 35.8967 12.8693 35.6759 12.9491 35.4254L14.5811 31.2884L13.2811 30.8184L11.7881 34.9584L10.2951 30.8184L8.99512 31.2884L10.6271 35.4254C10.7069 35.6766 10.8605 35.898 11.068 36.0607C11.2754 36.2234 11.5271 36.3198 11.7901 36.3374Z" fill="#1F263A"/>
<path d="M20.8273 36.3374C21.0896 36.3187 21.3402 36.2219 21.5469 36.0593C21.7535 35.8967 21.9066 35.6759 21.9863 35.4254L23.6163 31.2884L22.3163 30.8184L20.8233 34.9584L19.3273 30.8184L18.0273 31.2884L19.6593 35.4254C19.7389 35.676 19.8919 35.897 20.0986 36.0596C20.3052 36.2222 20.556 36.319 20.8183 36.3374H20.8273Z" fill="#1F263A"/>
<path d="M29.5337 36.1991H28.1937V35.5991C27.9994 35.8397 27.7518 36.0318 27.4704 36.1601C27.1891 36.2883 26.8817 36.3493 26.5727 36.3381C26.2108 36.3308 25.8541 36.2502 25.5241 36.1014C25.1942 35.9527 24.8977 35.7387 24.6526 35.4723C24.4074 35.206 24.2187 34.8928 24.0977 34.5517C23.9768 34.2105 23.9261 33.8484 23.9487 33.4871C23.9259 33.1257 23.9765 32.7635 24.0974 32.4222C24.2183 32.0808 24.407 31.7675 24.6521 31.5009C24.8972 31.2344 25.1938 31.0202 25.5238 30.8713C25.8539 30.7223 26.2106 30.6416 26.5727 30.6341C26.8821 30.6228 27.1899 30.6841 27.4714 30.8132C27.7529 30.9422 28.0002 31.1353 28.1937 31.3771V30.7791H29.5337V36.1991ZM25.2887 33.4871C25.2745 33.6891 25.3021 33.8918 25.3699 34.0826C25.4376 34.2734 25.544 34.4482 25.6823 34.596C25.8206 34.7438 25.988 34.8615 26.1739 34.9417C26.3598 35.0219 26.5602 35.0629 26.7627 35.0621C26.9658 35.0653 27.1674 35.026 27.3544 34.9466C27.5414 34.8672 27.7098 34.7496 27.8486 34.6012C27.9874 34.4529 28.0937 34.2771 28.1605 34.0852C28.2273 33.8934 28.2533 33.6896 28.2367 33.4871C28.2516 33.285 28.2245 33.082 28.157 32.8909C28.0896 32.6997 27.9832 32.5247 27.8447 32.3767C27.7062 32.2287 27.5386 32.111 27.3524 32.0311C27.1661 31.9511 26.9653 31.9106 26.7627 31.9121C26.5607 31.913 26.361 31.9551 26.1759 32.0358C25.9907 32.1166 25.824 32.2343 25.686 32.3818C25.548 32.5293 25.4416 32.7034 25.3732 32.8934C25.3049 33.0835 25.2761 33.2855 25.2887 33.4871Z" fill="#1F263A"/>
<path d="M16.9558 30.7852H15.6338V36.2062H16.9568L16.9558 30.7852Z" fill="#1F263A"/>
<path d="M17.1442 28.9527C17.1428 29.1201 17.092 29.2833 16.998 29.4217C16.9041 29.5602 16.7713 29.6678 16.6164 29.731C16.4614 29.7942 16.2912 29.8101 16.1273 29.7767C15.9633 29.7434 15.8128 29.6623 15.6949 29.5436C15.5769 29.4249 15.4967 29.274 15.4643 29.1098C15.4319 28.9457 15.4488 28.7756 15.5129 28.621C15.577 28.4664 15.6853 28.3343 15.8244 28.2412C15.9634 28.148 16.1269 28.0981 16.2942 28.0977C16.4067 28.0961 16.5184 28.1171 16.6226 28.1596C16.7268 28.2021 16.8214 28.2651 16.9007 28.3448C16.98 28.4246 17.0424 28.5196 17.0843 28.624C17.1261 28.7285 17.1465 28.8403 17.1442 28.9527Z" fill="#1F263A"/>
<path d="M31.4072 35.4526C31.4117 35.2125 31.5113 34.984 31.6842 34.8173C31.8571 34.6506 32.0891 34.5593 32.3292 34.5636C32.447 34.5619 32.5639 34.5836 32.6731 34.6276C32.7824 34.6715 32.8818 34.7367 32.9656 34.8195C33.0493 34.9022 33.1158 35.0008 33.1611 35.1095C33.2063 35.2182 33.2295 35.3349 33.2292 35.4526C33.2266 35.6905 33.131 35.9179 32.9627 36.0861C32.7945 36.2544 32.5671 36.35 32.3292 36.3526C32.0885 36.3527 31.8572 36.2586 31.6849 36.0904C31.5126 35.9222 31.413 35.6933 31.4072 35.4526Z" fill="#1F263A"/>
<path d="M34.6902 33.5518C34.6727 33.1752 34.7346 32.7992 34.8718 32.448C35.009 32.0969 35.2185 31.7785 35.4866 31.5134C35.7548 31.2484 36.0756 31.0427 36.4283 30.9096C36.7811 30.7765 37.1578 30.719 37.5342 30.7408C37.9652 30.7301 38.3935 30.8119 38.7902 30.9806C39.1869 31.1493 39.5429 31.401 39.8342 31.7188L38.8782 32.6188C38.7274 32.4355 38.5373 32.2883 38.322 32.1883C38.1066 32.0883 37.8716 32.0379 37.6342 32.0408C37.4365 32.0323 37.2392 32.0655 37.0551 32.1383C36.8711 32.2111 36.7045 32.3219 36.5661 32.4634C36.4278 32.6049 36.3209 32.774 36.2523 32.9597C36.1837 33.1453 36.1551 33.3434 36.1682 33.5408C36.156 33.7381 36.1853 33.9357 36.2543 34.1209C36.3232 34.3062 36.4301 34.4749 36.5683 34.6162C36.7064 34.7576 36.8726 34.8684 37.0562 34.9415C37.2398 35.0147 37.4367 35.0485 37.6342 35.0408C37.8779 35.0464 38.1196 34.9962 38.3409 34.8942C38.5622 34.7921 38.7573 34.6408 38.9112 34.4518L39.8552 35.3628C39.5651 35.7005 39.2001 35.9658 38.7893 36.1375C38.3785 36.3092 37.9333 36.3826 37.4892 36.3518C37.1171 36.3685 36.7456 36.3074 36.3983 36.1726C36.0511 36.0377 35.7358 35.8321 35.4724 35.5687C35.209 35.3053 35.0033 34.9899 34.8685 34.6427C34.7336 34.2955 34.6736 33.924 34.6902 33.5518Z" fill="#1F263A"/>
<path d="M40.2113 33.5394C40.1993 33.1609 40.2665 32.7841 40.4085 32.4331C40.5506 32.082 40.7644 31.7645 41.0363 31.5009C41.3082 31.2373 41.6321 31.0334 41.9874 30.9023C42.3427 30.7712 42.7214 30.7157 43.0993 30.7394C43.4776 30.7121 43.8574 30.7651 44.2136 30.8951C44.5699 31.0251 44.8946 31.229 45.1664 31.4935C45.4382 31.7581 45.6509 32.0771 45.7905 32.4297C45.9301 32.7824 45.9934 33.1606 45.9763 33.5394C45.99 33.9179 45.9243 34.295 45.7837 34.6466C45.643 34.9983 45.4305 35.3166 45.1596 35.5813C44.8887 35.8459 44.5655 36.0511 44.2107 36.1835C43.8559 36.316 43.4774 36.3728 43.0993 36.3504C42.7216 36.3692 42.3441 36.3099 41.9903 36.1763C41.6366 36.0427 41.3141 35.8377 41.0431 35.5739C40.7721 35.3101 40.5584 34.9933 40.4153 34.6433C40.2722 34.2933 40.2028 33.9175 40.2113 33.5394ZM44.4993 33.5394C44.5108 33.3478 44.4829 33.1559 44.4174 32.9754C44.352 32.7949 44.2503 32.6298 44.1187 32.4901C43.987 32.3503 43.8282 32.239 43.652 32.1629C43.4757 32.0868 43.2858 32.0475 43.0938 32.0475C42.9019 32.0475 42.7119 32.0868 42.5357 32.1629C42.3595 32.239 42.2006 32.3503 42.069 32.4901C41.9374 32.6298 41.8357 32.7949 41.7702 32.9754C41.7048 33.1559 41.6769 33.3478 41.6883 33.5394C41.6769 33.731 41.7048 33.923 41.7702 34.1034C41.8357 34.2839 41.9374 34.4491 42.069 34.5888C42.2006 34.7285 42.3595 34.8398 42.5357 34.9159C42.7119 34.992 42.9019 35.0313 43.0938 35.0313C43.2858 35.0313 43.4757 34.992 43.652 34.9159C43.8282 34.8398 43.987 34.7285 44.1187 34.5888C44.2503 34.4491 44.352 34.2839 44.4174 34.1034C44.4829 33.923 44.5108 33.731 44.4993 33.5394Z" fill="#1F263A"/>
<path d="M46.6377 30.8181H48.0927V31.5291H48.1037C48.2985 31.2853 48.5451 31.088 48.8257 30.9516C49.1062 30.8151 49.4137 30.7428 49.7257 30.7401C50.046 30.7161 50.3666 30.7838 50.6499 30.9352C50.9332 31.0866 51.1676 31.3154 51.3257 31.5951H51.3477C51.5766 31.3152 51.8674 31.0924 52.1971 30.944C52.5268 30.7956 52.8864 30.7258 53.2477 30.7401C54.4137 30.7401 55.1577 31.4401 55.1577 33.1061V36.2501H53.7027V33.4501C53.7027 32.5841 53.4357 32.0391 52.7587 32.0391C52.1477 32.0391 51.6477 32.5611 51.6477 33.5391V36.2501H50.1927V33.4501C50.1927 32.5841 49.9037 32.0391 49.2377 32.0391C48.5717 32.0391 48.0937 32.5611 48.0937 33.5391V36.2501H46.6387L46.6377 30.8181Z" fill="#1F263A"/>
</g>
<defs>
<clipPath id="clip0_1_500">
<rect width="64.816" height="44.469" fill="white"/>
</clipPath>
</defs>
</svg>
