<svg width="65" height="45" viewBox="0 0 65 45" fill="none" xmlns="http://www.w3.org/2000/svg">
<path d="M56.316 0.5H8.5C4.08172 0.5 0.5 4.08172 0.5 8.5V35.969C0.5 40.3873 4.08172 43.969 8.5 43.969H56.316C60.7343 43.969 64.316 40.3873 64.316 35.969V8.5C64.316 4.08172 60.7343 0.5 56.316 0.5Z" fill="white" stroke="#D9D9D9"/>
<path fill-rule="evenodd" clip-rule="evenodd" d="M18.3492 28.2301H15.4712C15.3751 28.2289 15.2819 28.2622 15.2085 28.3241C15.135 28.386 15.0863 28.4722 15.0712 28.5671L13.9072 35.9461C13.9018 35.9803 13.904 36.0153 13.9134 36.0486C13.9229 36.0819 13.9394 36.1128 13.9619 36.1391C13.9845 36.1654 14.0124 36.1865 14.0439 36.201C14.0753 36.2155 14.1095 36.2231 14.1442 36.2231H15.5222C15.6175 36.223 15.7097 36.1889 15.7821 36.127C15.8545 36.065 15.9024 35.9792 15.9172 35.8851L16.2312 33.8951C16.2459 33.8009 16.2939 33.7151 16.3663 33.6532C16.4387 33.5912 16.5308 33.5571 16.6262 33.5571H17.5372C17.9333 33.601 18.3343 33.5644 18.7159 33.4494C19.0975 33.3344 19.452 33.1434 19.7579 32.888C20.0638 32.6325 20.3149 32.3178 20.4961 31.9627C20.6773 31.6077 20.7848 31.2197 20.8122 30.8221C20.892 30.5045 20.9005 30.1732 20.8371 29.8519C20.7736 29.5307 20.6398 29.2274 20.4452 28.9641C20.1689 28.6985 19.8388 28.4954 19.4771 28.3688C19.1154 28.2421 18.7308 28.1948 18.3492 28.2301ZM18.6812 30.9301C18.5242 31.9631 17.7352 31.9631 16.9722 31.9631H16.5382L16.8382 30.0341C16.8476 29.9781 16.8766 29.9273 16.92 29.8906C16.9634 29.854 17.0184 29.834 17.0752 29.8341H17.2752C17.7952 29.8341 18.2852 29.8341 18.5382 30.1341C18.6178 30.2477 18.6718 30.3773 18.6964 30.5139C18.7211 30.6504 18.7159 30.7907 18.6812 30.9251V30.9301ZM26.9512 30.8971H25.5722C25.5154 30.897 25.4604 30.917 25.417 30.9537C25.3736 30.9903 25.3446 31.0411 25.3352 31.0971L25.2742 31.4831L25.1742 31.3431C24.965 31.1291 24.7096 30.9659 24.4276 30.8659C24.1456 30.7659 23.8444 30.7317 23.5472 30.7661C22.7872 30.7821 22.0583 31.0708 21.4935 31.5795C20.9287 32.0882 20.5654 32.7829 20.4702 33.5371C20.3976 33.9061 20.406 34.2865 20.4947 34.652C20.5835 35.0175 20.7505 35.3594 20.9842 35.6541C21.2023 35.8937 21.4717 36.0811 21.7722 36.2023C22.0728 36.3235 22.3968 36.3753 22.7202 36.3541C23.0749 36.3576 23.4268 36.2896 23.7546 36.1541C24.0825 36.0185 24.3796 35.8181 24.6282 35.5651L24.5662 35.9481C24.5607 35.9823 24.5627 36.0173 24.572 36.0506C24.5813 36.084 24.5978 36.115 24.6202 36.1414C24.6426 36.1678 24.6705 36.189 24.7019 36.2037C24.7333 36.2183 24.7675 36.2259 24.8022 36.2261H26.0432C26.1385 36.226 26.2306 36.192 26.3031 36.13C26.3755 36.068 26.4234 35.9822 26.4382 35.8881L27.1832 31.1721C27.1891 31.1379 27.1876 31.1029 27.1786 31.0694C27.1697 31.0359 27.1536 31.0048 27.1314 30.9782C27.1093 30.9515 27.0816 30.93 27.0503 30.9152C27.019 30.9003 26.9848 30.8924 26.9502 30.8921L26.9512 30.8971ZM25.0302 33.5791C24.9765 33.9504 24.7886 34.2893 24.5021 34.5316C24.2156 34.7739 23.8503 34.9028 23.4752 34.8941C23.3027 34.9123 23.1284 34.8882 22.9674 34.8239C22.8064 34.7596 22.6635 34.657 22.551 34.5251C22.4385 34.3931 22.3599 34.2357 22.3219 34.0665C22.284 33.8973 22.2878 33.7214 22.3332 33.5541C22.3858 33.1833 22.5715 32.8444 22.8556 32.6004C23.1396 32.3565 23.5027 32.2241 23.8772 32.2281C24.0485 32.2189 24.2198 32.2478 24.3787 32.3126C24.5376 32.3774 24.6801 32.4766 24.7962 32.6031C24.9029 32.7384 24.979 32.8954 25.0193 33.063C25.0595 33.2306 25.0629 33.405 25.0292 33.5741L25.0302 33.5791ZM32.9052 30.8971H34.2902C34.3341 30.8966 34.3773 30.9083 34.415 30.9307C34.4528 30.9532 34.4837 30.9856 34.5043 31.0243C34.5249 31.0631 34.5345 31.1068 34.532 31.1507C34.5295 31.1945 34.5151 31.2369 34.4902 31.2731L29.8852 37.9211C29.8483 37.9742 29.7991 38.0176 29.7418 38.0475C29.6845 38.0775 29.6208 38.0931 29.5562 38.0931H28.1732C28.1287 38.0939 28.085 38.0823 28.0468 38.0597C28.0085 38.0372 27.9773 38.0044 27.9565 37.9651C27.9358 37.9258 27.9264 37.8816 27.9293 37.8372C27.9323 37.7929 27.9474 37.7503 27.9732 37.7141L29.4072 35.6901L27.8822 31.2141C27.8699 31.1779 27.8665 31.1393 27.8721 31.1016C27.8778 31.0638 27.8923 31.0279 27.9146 30.9969C27.9369 30.9659 27.9663 30.9407 28.0003 30.9233C28.0343 30.906 28.072 30.8969 28.1102 30.8971H29.4712C29.5573 30.8969 29.6413 30.9245 29.7104 30.9759C29.7796 31.0272 29.8304 31.0995 29.8552 31.1821L30.6652 33.8821L32.5752 31.0691C32.6115 31.015 32.6604 30.9707 32.7177 30.9398C32.7751 30.909 32.8391 30.8926 32.9042 30.8921L32.9052 30.8971Z" fill="#253B80"/>
<path fill-rule="evenodd" clip-rule="evenodd" d="M47.9196 35.9452L49.1006 28.4312C49.11 28.3754 49.1389 28.3247 49.1821 28.2881C49.2252 28.2515 49.28 28.2313 49.3366 28.2312H50.6666C50.7011 28.2313 50.7352 28.2389 50.7666 28.2535C50.7979 28.2681 50.8257 28.2892 50.8481 28.3155C50.8705 28.3418 50.887 28.3726 50.8964 28.4059C50.9058 28.4391 50.9079 28.474 50.9026 28.5082L49.7376 35.8862C49.7227 35.9812 49.674 36.0676 49.6006 36.1297C49.5271 36.1918 49.4337 36.2253 49.3376 36.2242H48.1506C48.1162 36.2235 48.0824 36.2154 48.0514 36.2005C48.0204 36.1856 47.9931 36.1641 47.9711 36.1376C47.9492 36.1111 47.9332 36.0802 47.9243 36.047C47.9154 36.0138 47.9138 35.9791 47.9196 35.9452ZM38.8756 28.2292H35.9976C35.9024 28.2292 35.8104 28.2631 35.738 28.3249C35.6656 28.3866 35.6176 28.4722 35.6026 28.5662L34.4386 35.9452C34.4331 35.9793 34.4351 36.0143 34.4444 36.0476C34.4537 36.0809 34.4702 36.1118 34.4926 36.1381C34.515 36.1645 34.5429 36.1857 34.5744 36.2002C34.6058 36.2147 34.64 36.2222 34.6746 36.2222H36.1516C36.2181 36.222 36.2825 36.1982 36.333 36.155C36.3836 36.1117 36.4171 36.0519 36.4276 35.9862L36.7576 33.8952C36.7724 33.801 36.8203 33.7152 36.8927 33.6533C36.9651 33.5913 37.0573 33.5572 37.1526 33.5572H38.0636C38.4598 33.6013 38.8609 33.5647 39.2426 33.4498C39.6244 33.3349 39.9789 33.144 40.285 32.8885C40.591 32.633 40.8422 32.3182 41.0235 31.9631C41.2047 31.608 41.3122 31.2199 41.3396 30.8222C41.4195 30.5046 41.428 30.1733 41.3646 29.852C41.3011 29.5307 41.1672 29.2275 40.9726 28.9642C40.6964 28.6982 40.3661 28.4948 40.0042 28.368C39.6424 28.2411 39.2574 28.1938 38.8756 28.2292ZM39.2076 30.9292C39.0506 31.9622 38.2616 31.9622 37.4986 31.9622H37.0646L37.3696 30.0342C37.3788 29.9783 37.4076 29.9275 37.4509 29.8908C37.4941 29.8542 37.5489 29.8341 37.6056 29.8342H37.8056C38.3246 29.8342 38.8156 29.8341 39.0686 30.1341C39.1473 30.248 39.2005 30.3776 39.2245 30.5139C39.2485 30.6503 39.2427 30.7902 39.2076 30.9242V30.9292ZM47.4766 30.8962H46.0996C46.0427 30.8959 45.9877 30.9159 45.9442 30.9525C45.9008 30.9892 45.8718 31.0401 45.8626 31.0962L45.8016 31.4822L45.7016 31.3422C45.4924 31.1282 45.237 30.9649 44.955 30.8649C44.673 30.7649 44.3718 30.7308 44.0746 30.7652C43.3147 30.7813 42.586 31.07 42.0213 31.5787C41.4566 32.0874 41.0937 32.7821 40.9986 33.5362C40.9259 33.9051 40.9341 34.2855 41.0227 34.651C41.1113 35.0165 41.2781 35.3584 41.5116 35.6532C41.7298 35.8927 41.9992 36.0801 42.2997 36.2013C42.6002 36.3225 42.9242 36.3744 43.2476 36.3532C43.6022 36.3567 43.9538 36.2886 44.2815 36.153C44.6092 36.0175 44.9061 35.8172 45.1546 35.5642L45.0936 35.9472C45.0881 35.9815 45.0901 36.0165 45.0995 36.05C45.1089 36.0834 45.1254 36.1144 45.1479 36.1409C45.1704 36.1673 45.1984 36.1885 45.23 36.2031C45.2615 36.2176 45.2959 36.2252 45.3306 36.2252H46.5716C46.6669 36.2251 46.7591 36.1911 46.8315 36.1291C46.9039 36.0671 46.9518 35.9813 46.9666 35.8872L47.7116 31.1712C47.7174 31.1368 47.7156 31.1016 47.7065 31.068C47.6973 31.0343 47.6809 31.0031 47.6584 30.9765C47.636 30.9499 47.608 30.9284 47.5764 30.9137C47.5448 30.8989 47.5104 30.8913 47.4756 30.8912L47.4766 30.8962ZM45.5556 33.5781C45.5021 33.9497 45.3144 34.2888 45.0279 34.5313C44.7413 34.7738 44.3758 34.9029 44.0006 34.8942C43.8282 34.9121 43.654 34.8879 43.4931 34.8235C43.3322 34.7591 43.1894 34.6566 43.077 34.5247C42.9646 34.3927 42.8859 34.2355 42.8479 34.0664C42.8098 33.8973 42.8135 33.7215 42.8586 33.5542C42.9112 33.1834 43.0969 32.8445 43.381 32.6005C43.6651 32.3566 44.0281 32.2242 44.4026 32.2282C44.5739 32.2191 44.7452 32.248 44.904 32.3128C45.0629 32.3776 45.2055 32.4768 45.3216 32.6032C45.4286 32.7382 45.5049 32.8949 45.5453 33.0624C45.5857 33.2299 45.5892 33.4042 45.5556 33.5732V33.5781Z" fill="#179BD7"/>
<path d="M28.9987 25.5895L29.3528 23.3425L28.5648 23.3235H24.8018L27.4167 6.74252C27.4252 6.69201 27.451 6.64603 27.4897 6.61252C27.5286 6.5796 27.5778 6.56153 27.6288 6.56152H33.9738C36.0798 6.56152 37.5338 6.99951 38.2928 7.86151C38.6288 8.22993 38.8668 8.677 38.9848 9.16153C39.0998 9.75198 39.0998 10.3591 38.9848 10.9495L38.9767 11.0015V11.4585L39.3328 11.6585C39.6042 11.7962 39.8482 11.9822 40.0528 12.2075C40.3686 12.5798 40.5713 13.0347 40.6367 13.5185C40.7185 14.1519 40.6904 14.7947 40.5537 15.4185C40.4193 16.1755 40.1558 16.9038 39.7747 17.5715C39.4618 18.1036 39.0412 18.5645 38.5398 18.9245C38.0359 19.274 37.4723 19.5282 36.8768 19.6745C36.197 19.8418 35.4988 19.9225 34.7988 19.9145H34.3047C33.951 19.9144 33.6088 20.0406 33.3397 20.2703C33.0706 20.5 32.8922 20.8181 32.8368 21.1675L32.7997 21.3675L32.1747 25.3275L32.1468 25.4725C32.1454 25.5048 32.1314 25.5354 32.1078 25.5575C32.0896 25.573 32.0666 25.5815 32.0428 25.5815L28.9987 25.5895Z" fill="#253B80"/>
<path d="M39.6735 11.0557C39.6548 11.177 39.6331 11.301 39.6085 11.4277C38.7715 15.7277 35.9085 17.2077 32.2535 17.2077H30.3925C30.1765 17.2069 29.9674 17.2839 29.8035 17.4246C29.6395 17.5652 29.5316 17.7601 29.4995 17.9737L28.5465 24.0187L28.2765 25.7317C28.2656 25.7996 28.2696 25.8692 28.2883 25.9355C28.3069 26.0017 28.3397 26.0632 28.3844 26.1156C28.429 26.168 28.4846 26.21 28.5471 26.2389C28.6096 26.2677 28.6776 26.2826 28.7465 26.2827H32.0465C32.2355 26.2826 32.4183 26.2151 32.562 26.0923C32.7058 25.9695 32.8009 25.7994 32.8305 25.6127L32.8635 25.4447L33.4845 21.4997L33.5245 21.2837C33.5536 21.0967 33.6486 20.9262 33.7924 20.8032C33.9362 20.6801 34.1192 20.6126 34.3085 20.6127H34.8025C38.0025 20.6127 40.5025 19.3127 41.2375 15.5557C41.4301 14.9144 41.4706 14.2371 41.3556 13.5774C41.2407 12.9178 40.9736 12.294 40.5755 11.7557C40.3199 11.4694 40.0142 11.2322 39.6735 11.0557Z" fill="#179BD7"/>
<path d="M38.799 10.7074C38.671 10.6704 38.539 10.6364 38.404 10.6074C38.269 10.5784 38.129 10.5514 37.985 10.5284C37.4421 10.4449 36.8933 10.4048 36.344 10.4084H31.371C31.1818 10.4083 30.9987 10.4759 30.8549 10.5989C30.7112 10.722 30.6161 10.8924 30.587 11.0794L29.529 17.7794L29.499 17.9794C29.5312 17.7658 29.6391 17.5709 29.803 17.4303C29.967 17.2897 30.176 17.2127 30.392 17.2134H32.253C35.909 17.2134 38.772 15.7284 39.608 11.4334C39.633 11.3064 39.654 11.1824 39.673 11.0614C39.4521 10.9458 39.222 10.8488 38.985 10.7714C38.926 10.7434 38.863 10.7264 38.799 10.7074Z" fill="#222D65"/>
<path d="M30.5878 11.0782C30.6173 10.8914 30.7125 10.7214 30.8562 10.5986C30.9999 10.4757 31.1827 10.4082 31.3718 10.4082H36.3448C36.8941 10.4043 37.4428 10.4444 37.9858 10.5281C38.1291 10.5508 38.2688 10.5772 38.4048 10.6072C38.5408 10.6372 38.6741 10.6705 38.8048 10.7072L38.9928 10.7651C39.2298 10.8426 39.4599 10.9396 39.6808 11.0552C39.8411 10.4229 39.8466 9.7613 39.6969 9.12644C39.5472 8.49159 39.2467 7.90218 38.8208 7.40815C37.8748 6.33015 36.1668 5.86915 33.9808 5.86915H27.6358C27.419 5.86819 27.209 5.94494 27.0439 6.08546C26.8788 6.22598 26.7695 6.42097 26.7358 6.63514L24.0928 23.3842C24.0803 23.462 24.0849 23.5416 24.1062 23.6175C24.1276 23.6934 24.1651 23.7638 24.2162 23.8237C24.2674 23.8837 24.3309 23.9319 24.4025 23.9649C24.4741 23.998 24.552 24.0151 24.6308 24.0151H28.5478L29.5318 17.7752L30.5878 11.0782Z" fill="#253B80"/>
</svg>
