<svg width="65" height="45" viewBox="0 0 65 45" fill="none" xmlns="http://www.w3.org/2000/svg">
<path d="M56.316 0.5H8.5C4.08172 0.5 0.5 4.08172 0.5 8.5V35.969C0.5 40.3873 4.08172 43.969 8.5 43.969H56.316C60.7343 43.969 64.316 40.3873 64.316 35.969V8.5C64.316 4.08172 60.7343 0.5 56.316 0.5Z" fill="#5A31F4" stroke="#D9D9D9"/>
<path d="M36.4834 20.5014C36.5149 21.1429 36.4133 21.784 36.1851 22.3843C35.9569 22.9847 35.6069 23.5313 35.1572 23.9898C34.7075 24.4484 34.1679 24.8091 33.5721 25.049C32.9764 25.289 32.3375 25.4032 31.6955 25.3844H29.0665C29.0373 25.3843 29.0084 25.3902 28.9815 25.4014C28.9546 25.4126 28.9302 25.4289 28.9095 25.4494C28.8888 25.4699 28.8725 25.4944 28.8615 25.5214C28.8503 25.5483 28.8444 25.5772 28.8445 25.6064V29.3504C28.8446 29.3794 28.839 29.4082 28.8281 29.435C28.8171 29.4619 28.8009 29.4863 28.7804 29.5069C28.76 29.5275 28.7357 29.5439 28.709 29.5552C28.6822 29.5664 28.6535 29.5722 28.6245 29.5724H26.7845C26.7415 29.5712 26.6997 29.5577 26.6642 29.5334C26.6287 29.5091 26.601 29.4751 26.5845 29.4354C26.5732 29.4088 26.5674 29.3802 26.5675 29.3514V15.8354C26.5674 15.8064 26.5729 15.7778 26.5839 15.751C26.5949 15.7242 26.6111 15.6999 26.6315 15.6794C26.6519 15.6587 26.6762 15.6424 26.7029 15.6312C26.7297 15.62 26.7585 15.6143 26.7875 15.6144H31.7105C32.3518 15.5967 32.9899 15.7119 33.5845 15.9528C34.1792 16.1936 34.7176 16.5549 35.1659 17.0139C35.6142 17.4729 35.9626 18.0197 36.1894 18.6199C36.4161 19.22 36.5162 19.8606 36.4834 20.5014ZM34.1895 20.5014C34.2136 20.1399 34.1636 19.7773 34.0425 19.4359C33.9214 19.0944 33.7318 18.7813 33.4853 18.5158C33.2389 18.2503 32.9406 18.038 32.6091 17.8919C32.2776 17.7459 31.9198 17.6691 31.5575 17.6664H29.0665C29.0079 17.6667 28.9519 17.6901 28.9105 17.7314C28.8898 17.7519 28.8735 17.7764 28.8625 17.8034C28.8512 17.8303 28.8454 17.8592 28.8454 17.8884V23.1014C28.8454 23.1303 28.8512 23.1591 28.8623 23.1858C28.8734 23.2126 28.8897 23.2369 28.9103 23.2573C28.9308 23.2777 28.9552 23.2939 28.982 23.3049C29.0088 23.3159 29.0375 23.3215 29.0665 23.3214H31.5575C31.9191 23.3208 32.2767 23.246 32.6083 23.1017C32.9398 22.9573 33.2382 22.7465 33.4849 22.4821C33.7316 22.2177 33.9215 21.9055 34.0427 21.5648C34.1639 21.2241 34.2139 20.8622 34.1895 20.5014ZM37.0295 26.9794C37.0106 26.5422 37.1013 26.1072 37.2934 25.7141C37.4856 25.3209 37.7729 24.9821 38.1294 24.7284C39.1794 24.0965 40.3936 23.7912 41.6175 23.8514L43.3715 23.7894V23.2714C43.3715 22.2334 42.6715 21.7944 41.5595 21.7944C40.4475 21.7944 39.7345 22.1944 39.5715 22.8374C39.5582 22.8829 39.5302 22.9227 39.4918 22.9506C39.4534 22.9785 39.4069 22.9928 39.3595 22.9914H37.6265C37.5944 22.9923 37.5626 22.9862 37.5332 22.9734C37.5038 22.9606 37.4776 22.9415 37.4565 22.9174C37.4355 22.8934 37.4201 22.8651 37.4115 22.8344C37.4026 22.8039 37.4005 22.7718 37.4054 22.7404C37.6624 21.2064 38.9385 20.0404 41.6375 20.0404C44.5085 20.0404 45.5455 21.3774 45.5455 23.9304V29.3494C45.5453 29.3787 45.5395 29.4077 45.5281 29.4347C45.5168 29.4617 45.5003 29.4861 45.4795 29.5068C45.4587 29.5274 45.434 29.5437 45.4069 29.5548C45.3798 29.5659 45.3507 29.5715 45.3215 29.5714H43.5745C43.5161 29.5712 43.4601 29.5482 43.4184 29.5074C43.3981 29.4868 43.3821 29.4623 43.3715 29.4354C43.3603 29.4085 43.3549 29.3795 43.3555 29.3504V28.9454C43.3557 28.9119 43.346 28.8792 43.3275 28.8514C43.3092 28.8231 43.2826 28.8011 43.2515 28.7884C43.2197 28.7755 43.1848 28.7727 43.1515 28.7804C43.1188 28.7877 43.0892 28.8048 43.0665 28.8294C42.7085 29.1782 42.2801 29.4463 41.8099 29.6157C41.3397 29.7851 40.8387 29.8518 40.3405 29.8114C38.3465 29.8114 37.0304 28.7734 37.0304 26.9804L37.0295 26.9794ZM43.3695 25.8044V25.3844L41.0975 25.5044C39.8975 25.5654 39.2045 26.0634 39.2045 26.9044C39.2045 27.6624 39.8435 28.0814 40.9585 28.0814C41.2729 28.1229 41.5927 28.0938 41.8945 27.9964C42.1964 27.8989 42.4728 27.7355 42.7036 27.518C42.9344 27.3005 43.1139 27.0343 43.2291 26.7387C43.3443 26.4432 43.3923 26.1257 43.3695 25.8094V25.8044ZM47.2985 33.6664V32.0914C47.2988 32.0584 47.3064 32.0259 47.3208 31.9961C47.3351 31.9664 47.3559 31.9402 47.3815 31.9194C47.407 31.8985 47.4368 31.8834 47.4687 31.8753C47.5007 31.8672 47.5341 31.8661 47.5665 31.8724C47.8346 31.9226 48.1067 31.9484 48.3794 31.9494C48.8487 31.9717 49.3119 31.8361 49.6949 31.5641C50.078 31.2922 50.3588 30.8997 50.4925 30.4494L50.6065 30.0874C50.623 30.0387 50.623 29.986 50.6065 29.9374L46.9655 20.5874C46.9523 20.5534 46.9475 20.5167 46.9515 20.4804C46.9555 20.4446 46.9682 20.4103 46.9885 20.3804C47.009 20.3504 47.0364 20.3257 47.0685 20.3084C47.0993 20.2917 47.1335 20.2825 47.1684 20.2814H48.9335C48.9785 20.2819 49.0224 20.2958 49.0595 20.3214C49.0957 20.3461 49.1239 20.3808 49.1405 20.4214L51.6125 27.0154C51.628 27.0591 51.6568 27.097 51.6948 27.1238C51.7327 27.1506 51.778 27.165 51.8245 27.165C51.8709 27.165 51.9163 27.1506 51.9542 27.1238C51.9922 27.097 52.0209 27.0591 52.0365 27.0154L54.1835 20.4394C54.1983 20.3944 54.227 20.3552 54.2654 20.3276C54.3039 20.2999 54.3501 20.2851 54.3975 20.2854H56.2235C56.2584 20.2861 56.2926 20.295 56.3235 20.3114C56.3558 20.3286 56.3835 20.3533 56.4045 20.3834C56.4249 20.4132 56.438 20.4475 56.4425 20.4834C56.4469 20.5196 56.4424 20.5563 56.4295 20.5904L52.5475 30.9844C52.3172 31.8893 51.78 32.6862 51.0275 33.239C50.2749 33.7918 49.3539 34.0662 48.4215 34.0154C48.1003 34.0237 47.7795 33.985 47.4695 33.9004C47.4179 33.8869 47.3728 33.8556 47.342 33.812C47.3113 33.7685 47.2969 33.7155 47.3015 33.6624L47.2985 33.6664ZM14.7405 14.8394C12.4212 14.823 10.1839 15.6958 8.48849 17.2784C8.41672 17.3453 8.37206 17.4363 8.36303 17.534C8.35399 17.6318 8.3812 17.7294 8.43947 17.8084L9.48849 19.2424C9.52239 19.2903 9.5664 19.3301 9.61742 19.3591C9.66845 19.3881 9.72521 19.4055 9.78371 19.4101C9.84221 19.4147 9.90101 19.4063 9.95592 19.3856C10.0108 19.3649 10.0605 19.3324 10.1015 19.2904C10.711 18.6808 11.4358 18.1988 12.2337 17.8726C13.0316 17.5464 13.8865 17.3824 14.7485 17.3904C15.468 17.3596 16.1862 17.477 16.8584 17.7354C17.5307 17.9938 18.1427 18.3876 18.6564 18.8924C19.1701 19.3972 19.5745 20.0021 19.8446 20.6698C20.1147 21.3374 20.2447 22.0534 20.2265 22.7734C20.2628 23.4234 20.1646 24.0739 19.9379 24.6842C19.7113 25.2945 19.3611 25.8515 18.9093 26.3202C18.4575 26.789 17.9139 27.1595 17.3124 27.4085C16.7108 27.6575 16.0644 27.7797 15.4135 27.7674C14.9376 27.8071 14.4586 27.7506 14.005 27.6011C13.5515 27.4516 13.1327 27.2123 12.7738 26.8974C12.4148 26.5825 12.123 26.1984 11.9157 25.7682C11.7084 25.3379 11.59 24.8704 11.5675 24.3934C11.5696 23.9083 11.6795 23.4296 11.8891 22.9921C12.0987 22.5546 12.4028 22.1691 12.7795 21.8634C12.8582 21.7963 12.9079 21.7014 12.9182 21.5985C12.9285 21.4956 12.8984 21.3926 12.8345 21.3114L11.7345 19.9184C11.7013 19.876 11.66 19.8409 11.6129 19.8149C11.5658 19.7889 11.514 19.7726 11.4605 19.7671C11.407 19.7616 11.353 19.7669 11.3016 19.7828C11.2502 19.7986 11.2026 19.8247 11.1615 19.8594C10.484 20.4051 9.93729 21.0956 9.56145 21.8802C9.18561 22.6647 8.99015 23.5235 8.98946 24.3934C8.98946 27.6984 11.7985 30.2934 15.3975 30.3134H15.4455C16.4317 30.3272 17.4103 30.14 18.3218 29.7633C19.2333 29.3867 20.0586 28.8284 20.7474 28.1225C21.4361 27.4166 21.974 26.5778 22.3282 25.6573C22.6824 24.7368 22.8455 23.7539 22.8075 22.7684C22.821 21.7119 22.6207 20.6636 22.2185 19.6866C21.8163 18.7096 21.2206 17.8241 20.4672 17.0833C19.7138 16.3425 18.8184 15.7619 17.8347 15.3763C16.851 14.9906 15.7996 14.808 14.7435 14.8394H14.7405Z" fill="white"/>
</svg>
