<svg width="65" height="45" viewBox="0 0 65 45" fill="none" xmlns="http://www.w3.org/2000/svg">
<path d="M56.316 0.5H8.5C4.08172 0.5 0.5 4.08172 0.5 8.5V35.969C0.5 40.3873 4.08172 43.969 8.5 43.969H56.316C60.7343 43.969 64.316 40.3873 64.316 35.969V8.5C64.316 4.08172 60.7343 0.5 56.316 0.5Z" fill="white" stroke="#D9D9D9"/>
<path fill-rule="evenodd" clip-rule="evenodd" d="M39.0736 31.1963C39.4376 30.2703 40.2496 28.1963 39.8636 27.6963C39.4796 27.1963 37.3236 27.4573 36.3546 27.5753C36.0596 27.6113 36.0146 27.3494 36.2796 27.1594C38.0016 25.9244 40.8216 26.2774 41.1496 26.6944C41.4776 27.1114 41.0606 29.9943 39.4496 31.3773C39.1996 31.5883 38.9616 31.4753 39.0736 31.1963ZM27.4886 32.6244C31.4649 32.6309 35.3475 31.4177 38.6126 29.1483C39.1126 28.7663 38.6836 28.2043 38.1756 28.4243C34.8994 29.8368 31.3724 30.5755 27.8047 30.5963C23.0267 30.5973 18.3347 29.3261 14.2107 26.9134C13.8717 26.7134 13.6196 27.0674 13.9026 27.3264C17.5974 30.7485 22.4526 32.6418 27.4886 32.6244Z" fill="#FF9900"/>
<path fill-rule="evenodd" clip-rule="evenodd" d="M52.0061 25.8375H53.6061C53.687 25.8384 53.765 25.8074 53.8234 25.7513C53.8817 25.6952 53.9157 25.6184 53.9181 25.5375V21.0175C53.8883 20.4745 53.9749 19.9314 54.1721 19.4245C54.2454 19.2351 54.3719 19.0709 54.5364 18.9517C54.7008 18.8325 54.8962 18.7633 55.0991 18.7525C56.1201 18.7525 56.1111 19.8955 56.0991 20.7935C56.0991 20.8695 56.0991 20.9435 56.0991 21.0145V25.5755C56.1075 25.646 56.1407 25.7112 56.1927 25.7596C56.2447 25.8079 56.3121 25.8362 56.383 25.8395H57.9941C58.0687 25.8405 58.1412 25.8142 58.1979 25.7656C58.2546 25.717 58.2916 25.6495 58.3021 25.5755V20.2895C58.3798 19.3968 58.2363 18.4986 57.8841 17.6745C57.6882 17.3585 57.4118 17.1003 57.0831 16.9265C56.7545 16.7527 56.3855 16.6695 56.0141 16.6855C55.5099 16.6734 55.0171 16.8361 54.6192 17.146C54.2213 17.4558 53.9428 17.8938 53.831 18.3855H53.8V17.1015C53.7856 17.0363 53.7499 16.9778 53.6984 16.9353C53.647 16.8927 53.5828 16.8685 53.516 16.8665H52.0301C51.9533 16.8642 51.8785 16.8914 51.8212 16.9426C51.7639 16.9938 51.7284 17.065 51.722 17.1415V25.5415C51.7229 25.6177 51.7529 25.6907 51.8056 25.7457C51.8583 25.8006 51.93 25.8335 52.0061 25.8375ZM50.5061 21.4315C50.5061 18.7815 49.2201 16.6955 46.8421 16.6955C44.5251 16.6955 43.2421 18.7455 43.2421 21.3425C43.2421 23.9395 44.5131 26.0245 46.8421 26.0245C49.0891 26.0255 50.503 23.9935 50.503 21.4315H50.5061ZM45.6011 21.0785C45.6011 20.0525 45.676 18.4105 46.857 18.4105C47.1003 18.397 47.3402 18.4718 47.5326 18.6212C47.725 18.7706 47.8569 18.9845 47.904 19.2235C48.0892 19.9504 48.1701 20.6999 48.1441 21.4495C48.1441 22.5275 48.097 24.2935 46.844 24.2935C45.591 24.2935 45.6031 22.1515 45.6031 21.1125L45.6011 21.0785ZM15.6331 25.8595H17.2331C17.273 25.8603 17.3126 25.8531 17.3497 25.8383C17.3868 25.8235 17.4206 25.8015 17.4491 25.7735C17.5074 25.7162 17.5408 25.6383 17.5421 25.5565V21.0365C17.5421 20.0685 17.5421 18.7885 18.6481 18.7885C19.6721 18.7885 19.6561 19.9135 19.6481 20.8215C19.6481 20.9215 19.6481 21.0145 19.6481 21.1065V25.5585C19.648 25.6354 19.6774 25.7094 19.7302 25.7652C19.7831 25.821 19.8553 25.8544 19.9321 25.8585H21.537C21.5768 25.8592 21.6163 25.8519 21.6532 25.8371C21.6901 25.8223 21.7237 25.8004 21.7521 25.7725C21.8098 25.7153 21.8428 25.6378 21.844 25.5565V21.0005C21.8141 20.4957 21.8647 19.9894 21.9941 19.5005C22.0683 19.3045 22.1986 19.1346 22.3688 19.0122C22.539 18.8899 22.7415 18.8204 22.951 18.8125C23.0604 18.7979 23.1716 18.8051 23.2782 18.8336C23.3848 18.8622 23.4847 18.9115 23.5721 18.9788C23.6596 19.0461 23.7329 19.13 23.7878 19.2257C23.8427 19.3214 23.8782 19.4271 23.8921 19.5365C23.9439 19.9745 23.96 20.4159 23.9401 20.8565C23.9401 20.9565 23.9401 21.0415 23.9401 21.1095V25.5615C23.9399 25.6384 23.9694 25.7124 24.0222 25.7682C24.0751 25.824 24.1473 25.8574 24.2241 25.8615H25.8241C25.864 25.8623 25.9036 25.8551 25.9407 25.8403C25.9778 25.8255 26.0116 25.8035 26.0401 25.7755C26.0984 25.7182 26.1318 25.6403 26.133 25.5585V20.2585C26.133 20.1295 26.133 19.9975 26.133 19.8635C26.2337 19.0931 26.0907 18.3105 25.7241 17.6255C25.4686 17.2904 25.1274 17.0305 24.7365 16.8731C24.3456 16.7158 23.9194 16.6668 23.503 16.7315C23.0851 16.7997 22.693 16.9783 22.3672 17.2489C22.0414 17.5195 21.7938 17.8722 21.6501 18.2705C21.5145 17.8206 21.2376 17.4264 20.8605 17.1461C20.4833 16.8658 20.026 16.7145 19.5561 16.7145C19.0862 16.7145 18.6288 16.8658 18.2516 17.1461C17.8745 17.4264 17.5976 17.8206 17.4621 18.2705H17.4321V17.1705C17.4297 17.0954 17.3991 17.0239 17.3465 16.9702C17.294 16.9165 17.2231 16.8845 17.1481 16.8805H15.6551C15.5749 16.8805 15.498 16.9119 15.4408 16.968C15.3836 17.0241 15.3506 17.1004 15.3491 17.1805V25.5805C15.3541 25.6537 15.3858 25.7225 15.4381 25.7739C15.4905 25.8253 15.5598 25.8558 15.6331 25.8595ZM12.8461 25.9235C12.7951 25.9692 12.731 25.9976 12.6629 26.0046C12.5948 26.0116 12.5263 25.9969 12.4671 25.9625C12.1488 25.7072 11.878 25.3978 11.6671 25.0485C11.6311 24.9935 11.5931 24.9345 11.5501 24.8715C11.237 25.2667 10.8337 25.5808 10.3739 25.7876C9.91412 25.9943 9.41141 26.0876 8.90807 26.0595C8.5755 26.076 8.24332 26.0201 7.93447 25.8956C7.62563 25.7712 7.34747 25.5812 7.11926 25.3387C6.89104 25.0962 6.71822 24.8071 6.61269 24.4913C6.50717 24.1754 6.47148 23.8405 6.50808 23.5095C6.48715 22.9442 6.6385 22.3858 6.9421 21.9085C7.2457 21.4311 7.68718 21.0573 8.20806 20.8365C9.03012 20.5385 9.89182 20.3639 10.7651 20.3185L11.2201 20.2695V20.0585C11.2201 20.0185 11.2201 19.9775 11.2201 19.9355C11.2586 19.569 11.1891 19.1991 11.0201 18.8715C10.9163 18.7326 10.7799 18.6212 10.6229 18.5473C10.466 18.4733 10.2933 18.4391 10.1201 18.4475C9.82254 18.4264 9.52749 18.5144 9.29021 18.6952C9.05293 18.876 8.88969 19.137 8.83108 19.4295C8.8233 19.5036 8.79139 19.5731 8.74026 19.6273C8.68913 19.6815 8.62159 19.7175 8.54806 19.7295L7.00808 19.5575C6.9698 19.5518 6.93308 19.5383 6.90023 19.5178C6.86738 19.4974 6.83908 19.4704 6.81707 19.4385C6.79474 19.4064 6.77906 19.3701 6.77099 19.3318C6.76292 19.2935 6.76261 19.254 6.77007 19.2155C7.12607 17.2925 8.82707 16.7155 10.3521 16.7155C11.2284 16.6819 12.0865 16.9716 12.7631 17.5295C13.0595 17.8819 13.2764 18.2941 13.3989 18.738C13.5215 19.1819 13.5468 19.647 13.4731 20.1015C13.4731 20.1825 13.4731 20.2645 13.4731 20.3465V22.8945C13.4673 23.4041 13.6496 23.8979 13.9851 24.2815L14.0791 24.4115C14.1341 24.4706 14.1647 24.5483 14.1647 24.629C14.1647 24.7097 14.1341 24.7875 14.0791 24.8465C13.7511 25.1255 13.1701 25.6415 12.8511 25.9325L12.8461 25.9235ZM11.2311 21.9355V22.0145C11.2836 22.5842 11.1799 23.1574 10.9311 23.6725C10.8308 23.8856 10.6747 24.0674 10.4792 24.1986C10.2837 24.3298 10.0562 24.4055 9.82107 24.4175C9.20707 24.4175 8.84808 23.9395 8.84808 23.2305C8.84808 21.8375 10.0721 21.5835 11.2301 21.5835L11.2311 21.9355ZM34.9891 24.2655C35.0201 24.3085 35.0521 24.3515 35.0831 24.3955C35.1911 24.5455 35.213 24.7225 35.076 24.8225C34.748 25.1015 34.1671 25.6225 33.8481 25.9085C33.7967 25.9535 33.7326 25.9814 33.6647 25.9882C33.5967 25.995 33.5283 25.9804 33.469 25.9465C33.1506 25.6902 32.8798 25.3798 32.6691 25.0295C32.6341 24.9755 32.5961 24.9185 32.5541 24.8555C32.2412 25.2506 31.838 25.5649 31.3784 25.7718C30.9188 25.9787 30.4163 26.0722 29.9131 26.0445C29.5806 26.061 29.2485 26.0051 28.9398 25.8807C28.631 25.7563 28.3529 25.5664 28.1247 25.324C27.8965 25.0817 27.7236 24.7926 27.618 24.4769C27.5124 24.1613 27.4766 23.8264 27.5131 23.4955C27.4909 22.9285 27.6427 22.3683 27.9482 21.8901C28.2537 21.4119 28.6982 21.0387 29.222 20.8205C30.0468 20.521 30.9117 20.3461 31.7881 20.3015L32.2341 20.2535V20.0465C32.2341 20.0065 32.2341 19.9655 32.2341 19.9245C32.2733 19.5579 32.2038 19.1878 32.034 18.8605C31.9307 18.7209 31.7945 18.609 31.6375 18.5347C31.4805 18.4603 31.3076 18.426 31.1341 18.4345C30.8368 18.4137 30.5421 18.5019 30.3052 18.6826C30.0683 18.8634 29.9054 19.1243 29.847 19.4165C29.8389 19.4907 29.8068 19.5601 29.7555 19.6142C29.7042 19.6684 29.6366 19.7043 29.563 19.7165L28.0101 19.5455C27.9716 19.5399 27.9347 19.5265 27.9017 19.506C27.8686 19.4855 27.8402 19.4585 27.818 19.4265C27.773 19.3612 27.7558 19.2806 27.7701 19.2025C28.1281 17.2775 29.8291 16.7025 31.3541 16.7025C32.2303 16.6693 33.0883 16.959 33.7651 17.5165C34.0618 17.8655 34.2789 18.2749 34.4015 18.7163C34.5241 19.1577 34.5493 19.6205 34.4751 20.0725C34.4751 20.1585 34.4751 20.2445 34.4751 20.3315V22.8805C34.4703 23.3897 34.6533 23.8827 34.9891 24.2655ZM30.826 24.4035C31.0608 24.3915 31.2879 24.3161 31.4832 24.1852C31.6785 24.0544 31.8346 23.8731 31.9351 23.6605C32.1849 23.1408 32.2886 22.5627 32.235 21.9885V21.5705C31.076 21.5705 29.852 21.8225 29.852 23.2175C29.854 23.9255 30.2121 24.4035 30.8271 24.4035H30.826ZM36.4391 17.1495V18.3495C36.4384 18.39 36.446 18.4302 36.4613 18.4676C36.4766 18.5051 36.4993 18.5391 36.5281 18.5675C36.5563 18.5958 36.5901 18.6179 36.6273 18.6325C36.6644 18.6471 36.7042 18.6539 36.7441 18.6525H39.5011L36.3401 23.2865C36.194 23.5356 36.1245 23.8222 36.1401 24.1105V25.3335C36.1401 25.5105 36.3321 25.7115 36.5141 25.6115C37.3704 25.1569 38.3248 24.9184 39.2943 24.9166C40.2638 24.9149 41.2191 25.15 42.0771 25.6015C42.2771 25.7075 42.4661 25.5015 42.4661 25.3265V24.0405C42.4639 23.9445 42.4366 23.8507 42.3867 23.7685C42.3369 23.6864 42.2663 23.6188 42.1821 23.5725C41.2607 23.084 40.2234 22.8561 39.1821 22.9135L41.9111 18.9365C42.108 18.7241 42.2459 18.4638 42.3111 18.1815V17.1495C42.3115 17.1092 42.3039 17.0691 42.2888 17.0317C42.2737 16.9943 42.2514 16.9603 42.2231 16.9315C42.1949 16.9035 42.1613 16.8815 42.1243 16.8668C42.0874 16.8522 42.0478 16.8453 42.008 16.8465H36.7391C36.6994 16.8443 36.6597 16.8506 36.6226 16.8649C36.5855 16.8792 36.5519 16.9012 36.524 16.9295C36.4955 16.9584 36.4734 16.9928 36.4589 17.0307C36.4445 17.0686 36.437 17.109 36.4391 17.1495Z" fill="black"/>
</svg>
