<svg width="65" height="45" viewBox="0 0 65 45" fill="none" xmlns="http://www.w3.org/2000/svg">
<path d="M56.316 0.5H8.5C4.08172 0.5 0.5 4.08172 0.5 8.5V35.969C0.5 40.3873 4.08172 43.969 8.5 43.969H56.316C60.7343 43.969 64.316 40.3873 64.316 35.969V8.5C64.316 4.08172 60.7343 0.5 56.316 0.5Z" fill="white" stroke="#D9D9D9"/>
<path fill-rule="evenodd" clip-rule="evenodd" d="M34.8232 15.0983L31.5342 15.8043V13.1383L34.8232 12.4453V15.0983ZM21.4582 13.9613L18.2582 14.6413L18.2482 25.1103C18.2383 25.5571 18.3196 26.0012 18.4871 26.4155C18.6546 26.8299 18.9048 27.2057 19.2225 27.52C19.5401 27.8344 19.9185 28.0807 20.3345 28.2439C20.7506 28.4071 21.1955 28.4838 21.6422 28.4693C22.4296 28.5058 23.2147 28.3582 23.9352 28.0383V25.3853C23.5162 25.5553 21.4462 26.1563 21.4462 24.2223V19.5813H23.9352V16.7973H21.4452L21.4582 13.9613ZM13.7152 19.4113C13.0212 19.4113 12.6012 19.6113 12.6012 20.1173C12.6012 20.6743 13.3232 20.9173 14.2182 21.2223C15.6772 21.7223 17.5982 22.3693 17.6062 24.7833C17.6062 27.1233 15.7322 28.4693 13.0062 28.4693C11.7757 28.4654 10.5589 28.2119 9.42916 27.7243V24.6133C10.525 25.2329 11.7492 25.5908 13.0062 25.6593C13.7402 25.6593 14.2642 25.4593 14.2642 24.8593C14.2642 24.2423 13.4822 23.9593 12.5372 23.6213C11.0992 23.1033 9.28516 22.4493 9.28516 20.2723C9.28516 17.9593 11.0542 16.5723 13.7142 16.5723C14.8256 16.5619 15.9287 16.7656 16.9632 17.1723V20.2513C15.9601 19.7237 14.8482 19.4362 13.7152 19.4113ZM28.0102 17.7643L27.8002 16.7973H24.9702V28.2343H28.2462V20.4833C28.5468 20.1356 28.9441 19.8852 29.3876 19.7641C29.831 19.643 30.3005 19.6566 30.7362 19.8033V16.7973C30.241 16.6076 29.6945 16.6008 29.1948 16.778C28.6951 16.9553 28.275 17.305 28.0102 17.7643ZM31.5342 16.7973H34.8232V28.2343H31.5342V16.7973ZM56.4552 22.5613C56.4552 19.2153 54.8302 16.5753 51.7252 16.5753C48.6202 16.5753 46.7202 19.2153 46.7202 22.5353C46.7202 26.4693 48.9472 28.4563 52.1442 28.4563C53.4068 28.4912 54.657 28.1987 55.7732 27.6073V24.9933C54.7758 25.4855 53.6752 25.7321 52.5632 25.7123C51.2922 25.7123 50.1632 25.2683 50.0212 23.7253H56.4282C56.4282 23.6533 56.4282 23.4903 56.4382 23.3013C56.4462 23.0443 56.4552 22.7423 56.4552 22.5613ZM49.9822 21.3193C49.9822 19.8423 50.8822 19.2283 51.7122 19.2283C52.5122 19.2283 53.3632 19.8423 53.3632 21.3193H49.9822ZM39.0942 17.5953C39.7868 16.9373 40.7068 16.5723 41.6622 16.5763C43.9552 16.5763 46.1172 18.6413 46.1302 22.4323C46.1302 26.5753 43.9942 28.4573 41.6492 28.4573C40.8048 28.4561 39.9864 28.1656 39.3302 27.6343L39.3172 31.3343L36.0412 32.0273V16.7843H38.9282L39.0942 17.5953ZM39.3302 24.9673C39.5271 25.1767 39.7677 25.3403 40.0348 25.4464C40.302 25.5525 40.5892 25.5985 40.8762 25.5813C42.0822 25.5813 42.8942 24.2743 42.8942 22.5233C42.8942 20.8113 42.0682 19.4783 40.8762 19.4783C40.585 19.4618 40.2938 19.5107 40.024 19.6214C39.7542 19.7322 39.5127 19.902 39.3172 20.1183L39.3302 24.9673Z" fill="#6461FC"/>
</svg>
