<svg width="37" height="47" viewBox="0 0 37 47" fill="none" xmlns="http://www.w3.org/2000/svg">
<path opacity="0.5" d="M11.74 43.6819C11.74 44.2309 11.752 44.6889 11.734 45.1469C11.7368 45.5009 11.6351 45.8478 11.4418 46.1443C11.2484 46.4408 10.972 46.6737 10.647 46.8139C10.332 46.9806 9.97197 47.042 9.61959 46.9891C9.26721 46.9362 8.94105 46.7718 8.68896 46.5199C6.09596 44.1039 3.47796 41.7099 0.981964 39.1949C0.402814 38.5326 0.0753329 37.6875 0.0569605 36.8079C-0.0143729 30.4206 -0.0187067 24.0336 0.04396 17.6469C0.103899 14.5462 1.00948 11.5207 2.66296 8.89692C3.51896 7.49092 4.71096 7.36392 5.90496 8.53392C6.55996 9.17592 7.19397 9.83392 7.85397 10.4739C8.01879 10.6714 8.22316 10.8322 8.45391 10.9458C8.68466 11.0595 8.93668 11.1235 9.19369 11.1338C9.45071 11.1441 9.70703 11.1004 9.94614 11.0056C10.1852 10.9107 10.4018 10.7668 10.5819 10.5832C10.762 10.3995 10.9016 10.1801 10.9917 9.93923C11.0818 9.6983 11.1204 9.44117 11.1051 9.1844C11.0897 8.92763 11.0207 8.67694 10.9026 8.44846C10.7844 8.21999 10.6196 8.01882 10.419 7.85792C9.73896 7.15792 9.02397 6.48592 8.35197 5.77592C8.11767 5.58395 7.93621 5.3354 7.82473 5.05376C7.71325 4.77212 7.67545 4.4667 7.71489 4.16638C7.75433 3.86606 7.86971 3.58076 8.05013 3.33746C8.23055 3.09415 8.47004 2.90088 8.74596 2.77592C11.6184 0.965112 14.9441 0.00283709 18.3397 6.26384e-06C21.7352 -0.00282457 25.0625 0.953905 27.938 2.75992C28.2208 2.88722 28.466 3.08546 28.6497 3.33541C28.8334 3.58536 28.9493 3.87853 28.9864 4.1865C29.0234 4.49447 28.9802 4.80678 28.861 5.09314C28.7418 5.37951 28.5506 5.63021 28.306 5.82092C27.63 6.52692 26.915 7.19592 26.239 7.90192C26.0454 8.06646 25.8881 8.26935 25.7769 8.49779C25.6657 8.72622 25.6032 8.97524 25.5931 9.22908C25.5831 9.48293 25.6258 9.7361 25.7186 9.9726C25.8114 10.2091 25.9523 10.4238 26.1323 10.6031C26.3122 10.7823 26.5275 10.9224 26.7643 11.0142C27.0012 11.1061 27.2545 11.1479 27.5083 11.1369C27.7621 11.1259 28.0109 11.0623 28.2389 10.9503C28.4669 10.8382 28.6692 10.6801 28.833 10.4859C29.539 9.80992 30.209 9.09592 30.914 8.41892C31.1061 8.17565 31.3577 7.98594 31.6444 7.86807C31.9312 7.75019 32.2435 7.70812 32.5512 7.7459C32.8589 7.78367 33.1517 7.90002 33.4014 8.08375C33.6511 8.26747 33.8493 8.51239 33.977 8.79492C35.7047 11.5183 36.6377 14.6699 36.671 17.8949C36.721 24.1599 36.686 30.4249 36.691 36.6899C36.7047 37.2106 36.6073 37.7282 36.4052 38.2083C36.2031 38.6884 35.901 39.1198 35.519 39.4739C33.075 41.7813 30.6266 44.0846 28.174 46.3839C27.919 46.6736 27.5768 46.8725 27.1989 46.9508C26.8211 47.0291 26.428 46.9824 26.079 46.8179C25.7245 46.6677 25.4261 46.4099 25.2259 46.0811C25.0256 45.7522 24.9337 45.3688 24.963 44.9849C24.963 39.3309 24.963 33.6773 24.963 28.0239C24.9359 27.6092 25.0428 27.1967 25.2678 26.8472C25.4928 26.4978 25.8242 26.2299 26.213 26.0829C26.883 25.7909 27.563 25.5149 28.213 25.1779C29.0867 24.7595 29.8267 24.1062 30.3504 23.2912C30.874 22.4762 31.1606 21.5315 31.178 20.5629C31.2105 20.2798 31.1808 19.993 31.0908 19.7227C31.0008 19.4523 30.8528 19.2049 30.6571 18.9977C30.4614 18.7906 30.2228 18.6288 29.9579 18.5236C29.6931 18.4184 29.4084 18.3725 29.124 18.3889C27.382 18.3663 25.64 18.3663 23.898 18.3889C23.6367 18.379 23.3761 18.4213 23.1313 18.5133C22.8866 18.6053 22.6626 18.7451 22.4725 18.9246C22.2824 19.1041 22.13 19.3196 22.0241 19.5587C21.9183 19.7978 21.8611 20.0555 21.856 20.3169C21.3546 26.2503 20.862 32.1863 20.378 38.1249C20.264 39.5339 19.538 40.3789 18.363 40.3849C17.188 40.3909 16.444 39.5419 16.33 38.1449C15.8473 32.2116 15.355 26.2756 14.853 20.3369C14.8487 20.0678 14.7897 19.8024 14.6797 19.5567C14.5697 19.3111 14.411 19.0903 14.2131 18.9079C14.0153 18.7254 13.7824 18.5851 13.5286 18.4954C13.2749 18.4057 13.0055 18.3684 12.737 18.3859C11.0256 18.3686 9.3143 18.3686 7.60297 18.3859C7.3187 18.3669 7.0337 18.4102 6.76794 18.5129C6.50217 18.6155 6.26204 18.775 6.06438 18.9802C5.86672 19.1854 5.7163 19.4313 5.62364 19.7007C5.53098 19.9701 5.49832 20.2566 5.52796 20.5399C5.5424 21.5086 5.8257 22.4542 6.34625 23.2712C6.8668 24.0882 7.60413 24.7445 8.47597 25.1669C9.04318 25.4628 9.62755 25.7246 10.226 25.9509C10.7092 26.1041 11.1249 26.4192 11.403 26.843C11.6811 27.2669 11.8047 27.7736 11.753 28.2779C11.724 33.3849 11.74 38.4879 11.74 43.6819Z" fill="white"/>
</svg>
