<svg width="66" height="44" viewBox="0 0 66 44" fill="none" xmlns="http://www.w3.org/2000/svg">
<path opacity="0.5" d="M17.3889 44.0006C16.7129 44.0006 16.0529 43.9776 15.4289 43.9316C14.7499 43.8816 14.0969 43.8626 13.4659 43.8436C11.7305 43.912 9.99946 43.6252 8.37892 43.0006C6.54192 42.1746 4.87892 40.5736 3.13792 37.9626C1.75849 35.8161 0.833782 33.4095 0.42092 30.8916C0.0673651 28.8606 -0.0640753 26.7971 0.0289205 24.7376C0.324799 24.9271 0.668553 25.0284 1.01992 25.0296H1.05092C1.36284 25.0161 1.66742 24.9307 1.94082 24.7799C2.21422 24.6291 2.44905 24.4172 2.62692 24.1606C3.05532 23.5675 3.27447 22.8488 3.24992 22.1176C3.22292 20.5556 2.20492 19.2846 0.981921 19.2846H0.91492C1.4288 18.4059 2.20669 17.7117 3.13792 17.3006C5.50192 16.2006 9.73792 16.0356 12.0499 16.0356C12.7499 16.0356 13.1939 16.0516 13.1979 16.0516H13.9399C13.9779 16.0516 17.8289 16.1606 22.6999 16.8176C27.1899 17.4236 33.4809 18.6346 37.9529 20.9596C39.6895 21.8113 41.266 22.9564 42.6129 24.3446C43.4435 25.2108 44.0639 26.2564 44.4259 27.4006C44.7523 28.398 44.7453 29.4745 44.4059 30.4676C44.3018 31.7619 43.9154 33.0177 43.2739 34.1466C42.602 35.3643 41.7154 36.4504 40.6569 37.3526C39.1591 38.6076 37.4474 39.5824 35.6039 40.2306C27.1349 43.3466 21.0249 44.0006 17.3889 44.0006ZM19.7269 37.9276C19.3287 37.9225 18.9391 38.0436 18.6139 38.2736C18.4063 38.428 18.2319 38.6227 18.1013 38.8461C17.9707 39.0694 17.8866 39.3169 17.8539 39.5736C17.7504 40.4076 17.98 41.2488 18.4929 41.9146C18.7635 42.3099 19.1212 42.6377 19.5385 42.8728C19.9559 43.1079 20.4217 43.244 20.8999 43.2706C21.2982 43.2758 21.6878 43.1547 22.0129 42.9246C22.2204 42.7702 22.3946 42.5754 22.5251 42.352C22.6555 42.1286 22.7395 41.8812 22.7719 41.6246C22.8752 40.7906 22.6456 39.9495 22.1329 39.2836C21.8628 38.8884 21.5054 38.5605 21.0884 38.3254C20.6714 38.0903 20.2059 37.9542 19.7279 37.9276H19.7269ZM4.74692 37.4396C4.61263 37.4333 4.48069 37.4764 4.37592 37.5606C4.31984 37.6139 4.27508 37.6779 4.24433 37.7488C4.21357 37.8198 4.19745 37.8963 4.19692 37.9736C4.30962 38.9187 4.74307 39.7965 5.42492 40.4606C6.00221 41.2493 6.8455 41.8024 7.79892 42.0176C7.93365 42.0236 8.06595 41.9803 8.17092 41.8956C8.227 41.8423 8.27176 41.7783 8.30251 41.7073C8.33327 41.6364 8.34939 41.5599 8.34992 41.4826C8.23504 40.5388 7.80022 39.6628 7.11792 39.0006C6.54218 38.2108 5.69991 37.6563 4.74692 37.4396ZM25.5259 19.2396C24.9272 19.2439 24.3432 19.4254 23.8475 19.7612C23.3518 20.097 22.9666 20.5721 22.7405 21.1265C22.5143 21.6809 22.4574 22.2898 22.5769 22.8765C22.6963 23.4632 22.9868 24.0014 23.4117 24.4232C23.8366 24.845 24.3769 25.1316 24.9645 25.2468C25.552 25.3621 26.1605 25.3007 26.7132 25.0706C27.266 24.8405 27.7382 24.4519 28.0704 23.9538C28.4026 23.4557 28.5799 22.8703 28.5799 22.2716C28.5752 21.4648 28.2505 20.6928 27.6772 20.1251C27.1039 19.5574 26.3287 19.2404 25.5219 19.2436L25.5259 19.2396ZM63.3869 30.3866C63.3217 30.3858 63.2572 30.3726 63.1969 30.3476C62.6039 30.1116 62.7159 28.8476 62.7169 28.8376V26.5726C61.6315 24.9962 60.3645 23.5529 58.9419 22.2726C55.4973 19.1043 51.4263 16.6941 46.9919 15.1976C37.6569 12.0326 23.9689 11.7866 19.9919 11.7866C19.4349 11.7866 19.1159 11.7916 19.1129 11.7916C18.7768 11.8472 18.4366 11.875 18.0959 11.8746C17.0349 11.8746 15.7249 11.6026 15.5069 10.3066C15.0939 8.73059 17.9409 5.36359 17.9689 5.32959C19.6091 3.51363 21.5621 2.00704 23.7349 0.881592C25.1719 0.28451 26.7149 -0.0151877 28.2709 0.000592263C28.8061 -0.00396352 29.341 0.0314684 29.8709 0.106592C32.2516 0.424708 34.6112 0.884862 36.9369 1.48459C41.6641 2.60615 46.1881 4.45591 50.3469 6.96759C54.1611 9.56305 57.4959 12.8008 60.2029 16.5366C61.5067 18.2692 62.6813 20.0955 63.7169 22.0006C63.7166 21.9983 63.7166 21.9959 63.7169 21.9936C63.8109 21.8136 64.3089 20.9136 64.8729 20.9136C64.9143 20.9135 64.9556 20.9182 64.9959 20.9276C65.6689 21.0856 65.7159 23.2516 65.7169 23.2726C65.773 24.3534 65.6784 25.4368 65.4359 26.4916C65.1268 27.5889 64.6827 28.6436 64.1139 29.6316C64.1149 29.6396 63.8569 30.3866 63.3869 30.3866Z" fill="white"/>
</svg>
