<svg width="52" height="52" viewBox="0 0 52 52" fill="none" xmlns="http://www.w3.org/2000/svg">
<g opacity="0.5" filter="url(#filter0_d_1_46)">
<path d="M37 44H15C12.0826 44 9.28458 42.8411 7.22168 40.7782C5.15878 38.7153 4 35.9174 4 33V11C4 8.08262 5.15878 5.28473 7.22168 3.22183C9.28458 1.15893 12.0826 0 15 0H37C39.9174 0 42.7154 1.15893 44.7783 3.22183C46.8412 5.28473 48 8.08262 48 11V33C48 35.9174 46.8412 38.7153 44.7783 40.7782C42.7154 42.8411 39.9174 44 37 44ZM32.9678 26.622C30.7408 26.622 28.2338 26.655 27.9678 26.717C27.5908 26.8315 27.2618 27.066 27.0303 27.3848C26.7987 27.7036 26.6779 28.0893 26.6855 28.4832C26.6932 28.8772 26.8294 29.2578 27.0732 29.5673C27.3171 29.8768 27.6549 30.0983 28.0361 30.198C28.3071 30.276 30.6801 30.311 32.9111 30.311C35.1421 30.311 37.5112 30.276 37.7812 30.198C38.171 30.0954 38.5146 29.8644 38.7568 29.5423C38.999 29.2201 39.125 28.8257 39.1152 28.4228C39.1055 28.0199 38.9606 27.632 38.7031 27.322C38.4457 27.0119 38.0915 26.7977 37.6973 26.714C37.4343 26.647 34.9828 26.623 32.9668 26.623L32.9678 26.622ZM14.4004 13C14.1689 13.0017 13.9419 13.0661 13.7441 13.1863C13.5464 13.3066 13.3853 13.4783 13.2773 13.683C13.159 13.8546 13.0775 14.0488 13.0381 14.2535C12.9987 14.4581 13.0017 14.6688 13.0479 14.872C13.1587 15.2077 13.3372 15.5174 13.5713 15.7823C13.8054 16.0472 14.0906 16.2618 14.4102 16.413C15.5664 17.1088 16.6021 17.9868 17.4785 19.013C18.2082 19.7172 18.704 20.6293 18.8965 21.625C18.6727 22.6471 18.1507 23.5798 17.3965 24.305C16.5555 25.312 15.5442 26.1639 14.4092 26.822C14.086 26.9596 13.7962 27.1646 13.5586 27.4233C13.321 27.6819 13.141 27.9883 13.0312 28.322C12.9861 28.5282 12.9869 28.7418 13.0332 28.9477C13.0795 29.1537 13.1698 29.347 13.2988 29.514C13.4179 29.7235 13.5882 29.8992 13.7939 30.0246C13.9997 30.1501 14.2339 30.2211 14.4746 30.231C15.0069 30.1849 15.5164 29.9902 15.9434 29.669C18.0362 28.4002 19.8361 26.7031 21.2266 24.689C22.3346 22.941 22.6385 21.309 22.1035 19.969C21.3795 18.169 18.5185 15.15 16.1035 13.642C15.6034 13.279 15.0157 13.0572 14.4004 13Z" fill="white"/>
</g>
<defs>
<filter id="filter0_d_1_46" x="0" y="0" width="52" height="52" filterUnits="userSpaceOnUse" color-interpolation-filters="sRGB">
<feFlood flood-opacity="0" result="BackgroundImageFix"/>
<feColorMatrix in="SourceAlpha" type="matrix" values="0 0 0 0 0 0 0 0 0 0 0 0 0 0 0 0 0 0 127 0" result="hardAlpha"/>
<feOffset dy="4"/>
<feGaussianBlur stdDeviation="2"/>
<feComposite in2="hardAlpha" operator="out"/>
<feColorMatrix type="matrix" values="0 0 0 0 0 0 0 0 0 0 0 0 0 0 0 0 0 0 0.25 0"/>
<feBlend mode="normal" in2="BackgroundImageFix" result="effect1_dropShadow_1_46"/>
<feBlend mode="normal" in="SourceGraphic" in2="effect1_dropShadow_1_46" result="shape"/>
</filter>
</defs>
</svg>
