<svg width="39" height="49" viewBox="0 0 39 49" fill="none" xmlns="http://www.w3.org/2000/svg">
<path opacity="0.5" d="M33.7295 49.0011H5.27051C3.88062 49.0069 2.54575 48.4613 1.55762 47.4838C0.569483 46.5064 0.00925541 45.1769 0 43.7871V5.21407C0.00925541 3.8242 0.569483 2.49474 1.55762 1.51729C2.54575 0.539845 3.88062 -0.0058053 5.27051 5.09536e-05H33.7295C35.1195 -0.00606988 36.4552 0.539483 37.4434 1.51699C38.4315 2.49449 38.992 3.82412 39.001 5.21407V43.7871C38.992 45.177 38.4315 46.5066 37.4434 47.4841C36.4552 48.4616 35.1195 49.0072 33.7295 49.0011ZM15.2295 33.4491C15.0036 33.4484 14.783 33.5174 14.5977 33.6466C14.4123 33.7758 14.272 33.9589 14.1943 34.1711C14.0426 34.9983 14.1071 35.8507 14.3818 36.6457C14.6566 37.4406 15.1315 38.151 15.7617 38.7081L15.8018 38.7471C16.4548 39.4031 16.4546 39.403 18.1416 40.206L18.2705 40.2691C18.4635 40.3601 18.4764 40.405 18.5234 41.224C18.5944 42.476 18.9666 42.987 19.8086 42.987C20.6506 42.987 21.0089 42.495 21.0889 41.232C21.1389 40.413 21.1528 40.3591 21.3428 40.2691L21.4668 40.2091C23.1608 39.4091 23.1606 39.4091 23.8096 38.7531L23.8545 38.7081C24.6374 37.9705 25.1906 37.0217 25.4453 35.9767C25.7 34.9316 25.6458 33.8352 25.29 32.8201C24.8605 31.7253 24.1294 30.7748 23.1816 30.0786C22.2338 29.3825 21.1077 28.9693 19.9346 28.887H19.835C18.9566 28.8872 18.1143 28.5391 17.4922 27.9191C17.0321 27.4302 16.7252 26.817 16.6104 26.1555C16.4955 25.494 16.5773 24.8134 16.8457 24.198C17.1575 23.5592 17.6693 23.0391 18.3027 22.7164C18.9362 22.3937 19.6573 22.2859 20.3574 22.4092C21.0575 22.5325 21.6985 22.8802 22.1836 23.4C22.6686 23.9197 22.9711 24.5831 23.0459 25.2901C23.1799 26.3521 23.5742 26.8251 24.3262 26.8251H24.3789C24.6041 26.8227 24.824 26.7526 25.0088 26.6238C25.1936 26.495 25.3349 26.3135 25.415 26.103C25.5659 25.2755 25.5008 24.4231 25.2256 23.6283C24.9504 22.8334 24.474 22.1231 23.8438 21.5661L23.8066 21.5271C23.1536 20.8741 23.1539 20.874 21.4639 20.068L21.335 20.008C21.142 19.917 21.135 19.8811 21.083 19.0531C21.033 18.1311 20.9184 17.8151 20.5244 17.5181C20.3042 17.3369 20.0301 17.2336 19.7451 17.2241C19.0661 17.2241 18.5846 17.938 18.5166 19.042C18.4636 19.858 18.4498 19.9121 18.2588 20.0051L18.1279 20.0651C16.4409 20.8651 16.441 20.865 15.793 21.521L15.751 21.5631C14.968 22.3006 14.416 23.2493 14.1611 24.2943C13.9063 25.3394 13.9599 26.4359 14.3154 27.4511C14.7449 28.5458 15.476 29.4963 16.4238 30.1925C17.3716 30.8886 18.4968 31.3018 19.6699 31.3841H19.7871C20.4065 31.3863 21.0131 31.5616 21.5381 31.8903C22.0631 32.219 22.4852 32.6879 22.7578 33.2441C23.1163 34.153 23.1163 35.1641 22.7578 36.073C22.4449 36.7125 21.9328 37.2325 21.2979 37.5544C20.6629 37.8764 19.94 37.9827 19.2393 37.8572C18.5385 37.7317 17.8979 37.3814 17.4141 36.8592C16.9303 36.337 16.6293 35.6713 16.5576 34.9631C16.4296 33.9161 16.0372 33.4491 15.2832 33.4491H15.2295ZM11.166 8.34105C10.7814 8.26614 10.3847 8.27725 10.0049 8.37359C9.62507 8.46992 9.27115 8.64909 8.96875 8.89827C8.66635 9.14745 8.42304 9.46046 8.25586 9.81484C8.08868 10.1692 8.00195 10.5562 8.00195 10.948C8.00195 11.3399 8.08868 11.7269 8.25586 12.0813C8.42304 12.4356 8.66635 12.7486 8.96875 12.9978C9.27115 13.247 9.62507 13.4262 10.0049 13.5225C10.3847 13.6189 10.7814 13.63 11.166 13.555H26.9775C27.3621 13.63 27.7589 13.6189 28.1387 13.5225C28.5185 13.4262 28.8724 13.247 29.1748 12.9978C29.4772 12.7486 29.7205 12.4356 29.8877 12.0813C30.0549 11.7269 30.1416 11.3399 30.1416 10.948C30.1416 10.5562 30.0549 10.1692 29.8877 9.81484C29.7205 9.46046 29.4772 9.14745 29.1748 8.89827C28.8724 8.64909 28.5185 8.46992 28.1387 8.37359C27.7589 8.27725 27.3621 8.26614 26.9775 8.34105H23.3037C23.0619 7.44327 22.531 6.65024 21.793 6.08471C21.055 5.51917 20.1515 5.2127 19.2217 5.2127C18.2919 5.2127 17.3874 5.51917 16.6494 6.08471C15.9114 6.65024 15.3805 7.44327 15.1387 8.34105H11.166Z" fill="white"/>
</svg>
