<svg width="44" height="44" viewBox="0 0 44 44" fill="none" xmlns="http://www.w3.org/2000/svg">
<path opacity="0.5" d="M25.5778 43.5844C25.4428 43.5304 25.4318 41.5344 25.4318 21.8414C25.4318 9.90444 25.4598 0.116441 25.4958 0.0894411C25.5318 0.0624411 27.3278 0.0264411 29.4938 0.0264411C31.0771 -0.0349074 32.6627 0.010529 34.2398 0.162441C36.5184 0.542437 38.6239 1.61721 40.2682 3.23971C41.9126 4.8622 43.0154 6.95315 43.4258 9.22644C43.5528 9.88544 43.5708 11.4264 43.5708 21.7864C43.5708 34.7614 43.5878 34.3104 43.0198 36.0074C42.8277 36.5479 42.6016 37.0756 42.3428 37.5874C41.4935 39.2092 40.2616 40.5995 38.7538 41.6378C37.246 42.6762 35.5078 43.3313 33.6898 43.5464C33.1728 43.6004 30.4738 43.6354 28.3268 43.6354C26.8748 43.6364 25.6768 43.6204 25.5778 43.5844ZM29.8538 22.6844C29.6306 23.517 29.6186 24.3921 29.8188 25.2304C30.0768 26.1229 30.6121 26.91 31.3473 27.4779C32.0824 28.0458 32.9793 28.3649 33.9079 28.3891C34.8366 28.4133 35.7488 28.1412 36.5125 27.6124C37.2762 27.0835 37.8518 26.3252 38.1558 25.4474C38.4567 24.5146 38.4599 23.5112 38.1648 22.5764C37.9282 21.8948 37.528 21.2817 36.9994 20.7906C36.4709 20.2995 35.8299 19.9454 35.1328 19.7594C34.0457 19.477 32.8915 19.6231 31.9091 20.1678C30.9267 20.7124 30.1912 21.6138 29.8548 22.6854L29.8538 22.6844ZM15.2468 43.6114C10.3648 43.5844 9.60681 43.5574 9.01181 43.4224C6.84759 42.9714 4.86283 41.8964 3.30255 40.3303C1.74226 38.7641 0.674757 36.7753 0.231813 34.6094C0.050813 33.7694 0.041813 33.5164 0.015813 22.6454C-0.029187 10.8074 -0.00018701 9.91344 0.399813 8.38744C0.948401 6.30874 2.08051 4.43048 3.66239 2.9746C5.24427 1.51871 7.20982 0.546014 9.32681 0.171441C11.374 0.0177221 13.4278 -0.0276745 15.4798 0.0354411C20.7678 0.0264411 20.9208 0.0354411 21.0108 0.198441C21.0738 0.324441 21.1018 7.22344 21.1018 21.8684C21.1018 41.6244 21.0928 43.3684 20.9568 43.5034C20.8638 43.5964 20.5878 43.6294 18.7828 43.6294C17.9638 43.6264 16.8248 43.6264 15.2468 43.6114ZM13.9998 3.55744C10.1368 3.56644 9.58681 3.62044 8.39981 4.09944C7.22219 4.57642 6.17984 5.3355 5.36446 6.3099C4.54909 7.28431 3.98568 8.44417 3.72381 9.68744C3.53481 10.5814 3.53481 33.0464 3.73381 33.9584C4.02268 35.3781 4.70842 36.6867 5.71138 37.7321C6.71434 38.7775 7.99335 39.517 9.39981 39.8644C10.0768 40.0364 10.4378 40.0544 13.8208 40.0904L17.4948 40.1354V3.54844L13.9998 3.55744ZM10.7168 17.1644C10.1784 17.1952 9.64265 17.0698 9.17381 16.8034C8.32275 16.3954 7.63807 15.7068 7.23481 14.8534C6.97863 14.4028 6.85067 13.8906 6.86481 13.3724C6.80915 12.7463 6.90184 12.1159 7.13535 11.5323C7.36886 10.9487 7.73662 10.4284 8.20881 10.0134C8.76355 9.55974 9.41272 9.23583 10.1088 9.06544C10.6536 8.96266 11.2135 8.97019 11.7553 9.08759C12.2972 9.20498 12.81 9.42986 13.2634 9.74891C13.7168 10.068 14.1016 10.4747 14.395 10.9451C14.6885 11.4155 14.8846 11.9399 14.9718 12.4874C15.1214 13.4514 14.9205 14.437 14.4055 15.2654C13.8904 16.0938 13.0954 16.7101 12.1648 17.0024C11.8319 17.1256 11.4786 17.184 11.1238 17.1744C10.9998 17.1734 10.8708 17.1704 10.7168 17.1644Z" fill="white"/>
</svg>
