<svg width="53" height="39" viewBox="0 0 53 39" fill="none" xmlns="http://www.w3.org/2000/svg">
<path fill-rule="evenodd" clip-rule="evenodd" d="M23.2081 1.29999V12.443C23.2155 12.7662 23.1601 13.0879 23.0451 13.39V13.405C22.8489 13.9324 22.4956 14.3868 22.033 14.707C21.5704 15.0273 21.0207 15.198 20.4581 15.196H9.91608C9.55463 15.1965 9.19663 15.1257 8.86261 14.9875C8.5286 14.8494 8.22516 14.6467 7.96967 14.391C7.71418 14.1353 7.51165 13.8317 7.37375 13.4976C7.23586 13.1635 7.16529 12.8054 7.16608 12.444V9.72101C7.16687 8.99163 7.45677 8.29227 7.97223 7.77625C8.4877 7.26022 9.1867 6.9696 9.91608 6.96802H15.7161V1.29999C15.7149 1.13012 15.7472 0.961667 15.8113 0.804321C15.8753 0.646976 15.9698 0.503826 16.0892 0.383057C16.2087 0.262287 16.3508 0.166321 16.5075 0.100586C16.6641 0.0348509 16.8322 0.000653789 17.0021 0H21.9251C22.0947 0.00104698 22.2625 0.0355296 22.4188 0.10144C22.5751 0.167351 22.7168 0.263425 22.836 0.384155C22.9551 0.504885 23.0493 0.647903 23.1132 0.805054C23.177 0.962204 23.2093 1.13037 23.2081 1.29999ZM52.0951 26.09C52.0948 26.4487 52.0227 26.8038 51.8831 27.1342C51.7435 27.4647 51.5391 27.7638 51.2821 28.014L41.6571 37.529C41.2758 37.9141 40.7884 38.177 40.2571 38.284H13.8951V38.328H12.3431C11.9857 38.3288 11.6316 38.2585 11.3017 38.1212C10.9717 37.9838 10.6724 37.7822 10.4211 37.528L7.21308 34.361L0.813084 28.012C0.553354 27.7639 0.347228 27.4651 0.207402 27.1342C0.0675756 26.8032 -0.00297509 26.4472 9.61289e-05 26.088V17.579C0.00217216 17.0275 0.194551 16.4937 0.544743 16.0677C0.894936 15.6418 1.38146 15.3497 1.92209 15.241C2.07279 15.2103 2.22628 15.1956 2.38007 15.197H7.29508V27.48C7.29481 28.3469 7.63881 29.1784 8.25144 29.7918C8.86406 30.4052 9.69517 30.7502 10.5621 30.751H41.5071C42.3742 30.7504 43.2056 30.4056 43.8184 29.7922C44.4312 29.1788 44.7754 28.3471 44.7751 27.48V15.2H49.7131C50.0258 15.2 50.3354 15.2616 50.6243 15.3813C50.9132 15.5011 51.1757 15.6766 51.3967 15.8978C51.6177 16.119 51.793 16.3816 51.9125 16.6706C52.032 16.9596 52.0933 17.2693 52.0931 17.582L52.0951 26.09ZM38.6951 19.39C38.6945 19.888 38.4966 20.3655 38.1445 20.7177C37.7925 21.07 37.3151 21.2682 36.8171 21.269C36.4361 21.2738 36.063 21.1612 35.7483 20.9465C35.4336 20.7318 35.1926 20.4254 35.0581 20.069C34.9686 19.8532 34.9234 19.6216 34.9251 19.388C34.9259 18.931 35.0928 18.4898 35.3947 18.1467C35.6966 17.8036 36.1129 17.582 36.5661 17.523C36.6494 17.5129 36.7332 17.5078 36.8171 17.508C37.0642 17.5075 37.309 17.5556 37.5374 17.6497C37.7659 17.7438 37.9736 17.8821 38.1487 18.0565C38.3237 18.2309 38.4627 18.4381 38.5577 18.6662C38.6526 18.8943 38.7017 19.1389 38.7021 19.386L38.6951 19.39ZM35.3831 22.172C35.3814 22.6065 35.2297 23.0271 34.9537 23.3626C34.6776 23.6981 34.2941 23.9279 33.8681 24.0132C33.442 24.0985 32.9996 24.034 32.6157 23.8306C32.2317 23.6272 31.9298 23.2974 31.7611 22.897C31.6598 22.6689 31.6093 22.4215 31.6131 22.172C31.6116 21.7305 31.7645 21.3024 32.0454 20.9619C32.3263 20.6213 32.7174 20.3896 33.1511 20.307C33.2634 20.2877 33.3771 20.2776 33.4911 20.277C33.7406 20.2749 33.9881 20.3223 34.2192 20.4164C34.4503 20.5105 34.6605 20.6495 34.8375 20.8254C35.0146 21.0012 35.155 21.2104 35.2507 21.4409C35.3464 21.6713 35.3955 21.9185 35.3951 22.168L35.3831 22.172ZM42.0831 22.172C42.0825 22.67 41.8846 23.1475 41.5325 23.4997C41.1805 23.8519 40.7031 24.0502 40.2051 24.051C39.9125 24.0578 39.6229 23.9918 39.3621 23.859C39.0445 23.7025 38.7776 23.4596 38.5919 23.1582C38.4063 22.8568 38.3095 22.5091 38.3126 22.1551C38.3157 21.8011 38.4187 21.4551 38.6097 21.157C38.8006 20.859 39.0718 20.6208 39.3921 20.47C39.6447 20.3441 39.9229 20.2784 40.2051 20.278C40.4529 20.2781 40.6983 20.3271 40.9271 20.4222C41.156 20.5174 41.3638 20.6567 41.5388 20.8323C41.7137 21.0078 41.8522 21.2162 41.9465 21.4454C42.0408 21.6746 42.0889 21.9202 42.0881 22.168L42.0831 22.172ZM44.7741 9.74103V12.464C44.7734 12.8244 44.7018 13.1811 44.5632 13.5138C44.4246 13.8465 44.2218 14.1486 43.9664 14.4028C43.711 14.6571 43.4081 14.8585 43.0748 14.9957C42.7415 15.1328 42.3845 15.2029 42.0241 15.202H31.4871C31.1253 15.2053 30.7665 15.1369 30.4313 15.0009C30.0961 14.8648 29.7912 14.6636 29.5342 14.4091C29.2771 14.1545 29.073 13.8516 28.9336 13.5178C28.7942 13.1839 28.7223 12.8258 28.7221 12.464V9.74103C28.7229 9.37871 28.795 9.02004 28.9344 8.68561C29.0738 8.35117 29.2777 8.04751 29.5344 7.79187C29.7912 7.53623 30.0958 7.33366 30.4308 7.19574C30.7658 7.05782 31.1248 6.98719 31.4871 6.98798H42.0291C42.3903 6.98745 42.748 7.05822 43.0819 7.19617C43.4157 7.33412 43.719 7.53657 43.9745 7.79193C44.2299 8.04729 44.4325 8.35056 44.5705 8.68433C44.7086 9.01809 44.7795 9.3758 44.7791 9.737L44.7741 9.74103ZM38.6971 25.013C38.6989 25.2404 38.6589 25.4661 38.5791 25.679C38.4435 26.0358 38.2027 26.3429 37.8885 26.5598C37.5744 26.7766 37.2018 26.8928 36.8201 26.893C36.6087 26.8983 36.3981 26.8644 36.1991 26.793C35.8712 26.6801 35.5809 26.479 35.3599 26.2119C35.1389 25.9447 34.9958 25.6218 34.9464 25.2786C34.8969 24.9354 34.9431 24.5852 35.0797 24.2665C35.2164 23.9479 35.4382 23.673 35.7208 23.4722C36.0035 23.2714 36.3361 23.1524 36.6819 23.1283C37.0278 23.1042 37.3737 23.1759 37.6815 23.3356C37.9893 23.4952 38.2471 23.7366 38.4266 24.0333C38.6061 24.3299 38.7004 24.6703 38.6991 25.017L38.6971 25.013ZM22.2971 21.091V24.569H18.8371V28.032H15.3621V24.569H11.9021V21.091H15.3621V17.628H18.8371V21.091H22.2971Z" fill="url(#paint0_linear_1_425)"/>
<path d="M52.0951 17.5809V26.0899C52.0948 26.4486 52.0227 26.8036 51.8831 27.1341C51.7435 27.4645 51.5391 27.7637 51.2821 28.0139L41.6571 37.5289C41.2758 37.9141 40.7884 38.177 40.2571 38.2839H13.8951V38.3279H12.3431C11.9857 38.3287 11.6316 38.2584 11.3017 38.1211C10.9717 37.9837 10.6724 37.7821 10.4211 37.5279L7.21308 34.3609L0.813084 28.0119C0.553354 27.7637 0.347228 27.465 0.207402 27.1341C0.0675756 26.8032 -0.00297509 26.4472 9.61289e-05 26.0879V17.5789C0.00217216 17.0275 0.194551 16.4937 0.544743 16.0677C0.894936 15.6417 1.38146 15.3496 1.92209 15.2409C2.07279 15.2101 2.22628 15.1954 2.38007 15.1969H7.29508V27.4799C7.29508 28.3466 7.63918 29.1779 8.25177 29.7911C8.86437 30.4042 9.69534 30.7491 10.5621 30.7499H41.5071C42.374 30.7494 43.2052 30.4046 43.818 29.7914C44.4308 29.1782 44.7751 28.3468 44.7751 27.4799V15.1979H49.7131C50.026 15.1977 50.336 15.2591 50.6252 15.3788C50.9144 15.4984 51.1771 15.674 51.3983 15.8954C51.6196 16.1167 51.795 16.3795 51.9146 16.6687C52.0341 16.958 52.0955 17.2679 52.0951 17.5809Z" fill="url(#paint1_linear_1_425)"/>
<path d="M23.2081 12.4458V12.7568C23.2104 12.9795 23.1541 13.1988 23.045 13.3928C23.1601 13.0907 23.2155 12.769 23.2081 12.4458Z" fill="url(#paint2_linear_1_425)"/>
<defs>
<linearGradient id="paint0_linear_1_425" x1="55.2208" y1="9.63614e-07" x2="8.09757" y2="49.8878" gradientUnits="userSpaceOnUse">
<stop offset="0.01" stop-color="#FC00FF"/>
<stop offset="1" stop-color="#00DBDE"/>
</linearGradient>
<linearGradient id="paint1_linear_1_425" x1="55.2208" y1="15.1968" x2="30.7095" y2="58.1945" gradientUnits="userSpaceOnUse">
<stop offset="0.01" stop-color="#FC00FF"/>
<stop offset="1" stop-color="#00DBDE"/>
</linearGradient>
<linearGradient id="paint2_linear_1_425" x1="23.2185" y1="12.4458" x2="22.9101" y2="12.4873" gradientUnits="userSpaceOnUse">
<stop offset="0.01" stop-color="#FC00FF"/>
<stop offset="1" stop-color="#00DBDE"/>
</linearGradient>
</defs>
</svg>
