<svg width="65" height="45" viewBox="0 0 65 45" fill="none" xmlns="http://www.w3.org/2000/svg">
<path d="M56.316 0.5H8.5C4.08172 0.5 0.5 4.08172 0.5 8.5V35.969C0.5 40.3873 4.08172 43.969 8.5 43.969H56.316C60.7343 43.969 64.316 40.3873 64.316 35.969V8.5C64.316 4.08172 60.7343 0.5 56.316 0.5Z" fill="white" stroke="#D9D9D9"/>
<path fill-rule="evenodd" clip-rule="evenodd" d="M15.476 16.5604C15.9148 16.5676 16.3494 16.4728 16.7454 16.2834C17.1414 16.0941 17.488 15.8155 17.758 15.4694C18.3341 14.775 18.6207 13.8854 18.558 12.9854C17.6779 13.0694 16.8655 13.4939 16.294 14.1683C16.0068 14.4935 15.7867 14.8723 15.6464 15.2828C15.506 15.6933 15.4481 16.1274 15.476 16.5604ZM25.819 28.3683V14.0764H31.119C31.7405 14.0489 32.3609 14.1519 32.9402 14.3787C33.5195 14.6056 34.0449 14.9512 34.4826 15.3934C34.9202 15.8355 35.2604 16.3645 35.4813 16.9461C35.7022 17.5277 35.7988 18.1492 35.765 18.7704C35.7941 19.3974 35.6919 20.0236 35.465 20.6089C35.2382 21.1942 34.8916 21.7256 34.4474 22.1691C34.0033 22.6127 33.4714 22.9587 32.8858 23.1848C32.3003 23.4109 31.674 23.5123 31.047 23.4824H28.011V28.3683H25.819ZM18.546 16.7344C17.8441 16.7352 17.1511 16.8916 16.517 17.1924C16.2335 17.3297 15.9295 17.4196 15.617 17.4584C15.2892 17.4224 14.9702 17.33 14.674 17.1854C14.1809 16.9483 13.6454 16.8123 13.099 16.7853C12.4479 16.8037 11.8131 16.9931 11.2583 17.3343C10.7034 17.6755 10.2481 18.1566 9.93796 18.7294C8.57896 21.0944 9.58496 24.5963 10.898 26.5223C11.541 27.4763 12.311 28.5224 13.325 28.4844C13.7079 28.4585 14.0819 28.3565 14.425 28.1844C14.8604 27.9685 15.339 27.854 15.825 27.8494C16.2921 27.8534 16.7519 27.9649 17.169 28.1754C17.5319 28.3633 17.9343 28.462 18.343 28.4634C19.394 28.4454 20.055 27.5103 20.698 26.5563C21.1487 25.8855 21.5006 25.1534 21.743 24.3824L21.748 24.3654L21.723 24.3533C21.1202 24.0813 20.6088 23.6411 20.2501 23.0855C19.8914 22.5299 19.7008 21.8827 19.701 21.2214C19.7062 20.6351 19.8581 20.0595 20.1428 19.5471C20.4275 19.0346 20.836 18.6015 21.331 18.2874L21.358 18.2693C21.0409 17.8125 20.6217 17.4359 20.1335 17.1696C19.6453 16.9033 19.1017 16.7536 18.546 16.7344ZM39.766 28.4783C40.4194 28.4948 41.065 28.3339 41.6343 28.0128C42.2036 27.6916 42.6752 27.2221 42.999 26.6544H43.044V28.3694H45.073V21.2543C45.073 19.1913 43.443 17.8624 40.934 17.8624C38.606 17.8624 36.885 19.2104 36.822 21.0624H38.796C38.9068 20.6096 39.1781 20.2124 39.5594 19.9443C39.9408 19.6762 40.4064 19.5554 40.87 19.6044C42.21 19.6044 42.962 20.2364 42.962 21.4044V22.1934L40.227 22.3583C37.682 22.5143 36.305 23.5683 36.305 25.4023C36.307 27.2503 37.727 28.4783 39.766 28.4783ZM40.354 26.7784C39.186 26.7784 38.443 26.2104 38.443 25.3394C38.443 24.4394 39.159 23.9184 40.526 23.8394L42.962 23.6833V24.4904C42.9497 24.815 42.8715 25.1337 42.7321 25.4271C42.5927 25.7205 42.395 25.9824 42.1511 26.197C41.9072 26.4115 41.6221 26.5741 41.3133 26.6749C41.0046 26.7757 40.6785 26.8127 40.355 26.7834L40.354 26.7784ZM51.802 28.9233C50.924 31.4233 49.918 32.2513 47.781 32.2513C47.5024 32.2524 47.224 32.234 46.948 32.1964V30.4814C47.084 30.4994 47.419 30.5184 47.591 30.5184C48.0293 30.5486 48.4629 30.4125 48.8054 30.1373C49.1479 29.8621 49.3741 29.4679 49.439 29.0334L49.639 28.4014L45.928 18.0004H48.219L50.798 26.4434H50.843L53.424 17.9994H55.652L51.802 28.9233ZM28.01 15.9434H30.537C32.437 15.9434 33.526 16.9704 33.526 18.7764C33.526 20.5824 32.439 21.6183 30.526 21.6183H28.01V15.9434Z" fill="black"/>
</svg>
