<svg width="65" height="45" viewBox="0 0 65 45" fill="none" xmlns="http://www.w3.org/2000/svg">
<path d="M56.316 0.5H8.5C4.08172 0.5 0.5 4.08172 0.5 8.5V35.969C0.5 40.3873 4.08172 43.969 8.5 43.969H56.316C60.7343 43.969 64.316 40.3873 64.316 35.969V8.5C64.316 4.08172 60.7343 0.5 56.316 0.5Z" fill="#1F72CD" stroke="#D9D9D9"/>
<path fill-rule="evenodd" clip-rule="evenodd" d="M11.6439 15.7609L5.58691 29.1609H12.8379L13.7379 27.0229H15.7919L16.6919 29.1609H24.6739V27.5299L25.3849 29.1609H29.5119L30.2229 27.4949V29.1609H46.8229L48.8409 27.0789L50.7309 29.1609L59.2569 29.1779L53.1809 22.4959L59.2569 15.7559H50.8649L48.8999 17.7999L47.0699 15.7559H29.0119L27.4609 19.2159L25.8739 15.7559H18.6369V17.3319L17.8369 15.7559L11.6439 15.7609ZM36.4329 17.6609H45.9649L48.8809 20.8099L51.8899 17.6609H54.8059L50.3759 22.4949L54.8059 27.2729H51.7579L48.8419 24.0869L45.8179 27.2819H36.4329V17.6609ZM38.7869 21.4079V19.6499H44.7349L47.3349 22.4579L44.6249 25.2809H38.7869V23.3639H43.9869V21.4119L38.7869 21.4079ZM13.0469 17.6609H16.5819L20.5999 26.7509V17.6609H24.4719L27.5719 24.1779L30.4319 17.6609H34.2849V27.2819H31.9439L31.9249 19.7449L28.5069 27.2819H26.4119L22.9749 19.7449V27.2819H18.1499L17.2359 25.1259H12.2959L11.3839 27.2809H8.79992L13.0469 17.6609ZM13.1389 23.1289L14.7659 19.2879L16.3919 23.1289H13.1389Z" fill="white"/>
</svg>
