<svg width="65" height="45" viewBox="0 0 65 45" fill="none" xmlns="http://www.w3.org/2000/svg">
<path d="M56.316 0.5H8.5C4.08172 0.5 0.5 4.08172 0.5 8.5V35.969C0.5 40.3873 4.08172 43.969 8.5 43.969H56.316C60.7343 43.969 64.316 40.3873 64.316 35.969V8.5C64.316 4.08172 60.7343 0.5 56.316 0.5Z" fill="white" stroke="#D9D9D9"/>
<path fill-rule="evenodd" clip-rule="evenodd" d="M42.5031 14.5215C42.1302 14.5239 41.7664 14.6366 41.4575 14.8455C41.1486 15.0544 40.9085 15.3501 40.7674 15.6953C40.6263 16.0405 40.5907 16.4197 40.6649 16.7851C40.7391 17.1506 40.9198 17.4858 41.1843 17.7487C41.4488 18.0115 41.7853 18.1902 42.1512 18.262C42.5171 18.3339 42.8961 18.2958 43.2404 18.1526C43.5846 18.0094 43.8788 17.7673 44.0858 17.4571C44.2927 17.1469 44.4031 16.7824 44.4031 16.4095C44.4025 16.1607 44.3528 15.9145 44.2569 15.6849C44.161 15.4554 44.0209 15.247 43.8444 15.0717C43.668 14.8963 43.4587 14.7575 43.2285 14.6631C42.9984 14.5687 42.7519 14.5206 42.5031 14.5215ZM15.1391 20.8485C14.6521 20.8175 13.5261 20.7485 13.5261 19.7355C13.5261 18.5185 15.1471 18.5185 15.7551 18.5185C16.9251 18.5707 18.0832 18.7754 19.2001 19.1275C19.2001 19.1275 19.7512 19.3215 20.2202 19.5185L20.2641 19.5305V16.1965L20.2061 16.1785C18.5894 15.601 16.8792 15.3298 15.1631 15.3785C10.8241 15.3785 9.28613 17.8925 9.28613 20.0475C9.28613 21.2885 9.82113 24.2125 14.7861 24.5475C15.2121 24.5735 16.3221 24.6415 16.3221 25.6805C16.3221 26.5415 15.4061 27.0475 13.8671 27.0475C12.389 27.0354 10.9257 26.7531 9.54913 26.2145V29.6475C11.2281 30.0605 12.9533 30.2562 14.6821 30.2295C18.9231 30.2295 20.8241 27.8505 20.8241 25.4915C20.8281 22.8235 18.7071 21.0875 15.1391 20.8485ZM27.9461 19.3665L27.9661 19.3155H32.5092C31.8871 21.2051 30.9439 22.9733 29.7211 24.5425C30.7461 26.2988 31.5933 28.153 32.2501 30.0775H27.4931C27.1475 28.5634 26.5675 27.1125 25.7741 25.7775V30.0775H21.8021V16.1625L25.7741 15.3805V23.0574C26.6929 21.9526 27.4264 20.7061 27.9461 19.3665ZM51.6801 30.0765V16.0655L55.5302 15.3805V30.0805L51.6801 30.0765ZM38.4081 19.1705C34.8521 19.2845 33.0441 20.8705 33.0441 24.0305V30.0775H36.9281V25.1455C36.9281 23.2565 37.1771 22.4455 39.4281 22.3685V19.2265C39.0906 19.1758 38.7491 19.1571 38.4081 19.1705ZM40.5791 30.0775V19.3275H44.4281V30.0765L40.5791 30.0775ZM46.0601 16.0665L49.9071 15.3815V30.0815H46.0601V16.0665Z" fill="#862165"/>
</svg>
