<svg width="65" height="45" viewBox="0 0 65 45" fill="none" xmlns="http://www.w3.org/2000/svg">
<path d="M56.316 0.5H8.5C4.08172 0.5 0.5 4.08172 0.5 8.5V35.969C0.5 40.3873 4.08172 43.969 8.5 43.969H56.316C60.7343 43.969 64.316 40.3873 64.316 35.969V8.5C64.316 4.08172 60.7343 0.5 56.316 0.5Z" fill="white" stroke="#D9D9D9"/>
<path fill-rule="evenodd" clip-rule="evenodd" d="M30.6142 29.1866V23.5986H33.4982C34.05 23.6106 34.5988 23.5128 35.1124 23.3107C35.6261 23.1086 36.0945 22.8064 36.4902 22.4215L36.6902 22.2215C37.4011 21.4437 37.7785 20.4178 37.7411 19.3647C37.7037 18.3115 37.2545 17.315 36.4902 16.5895C36.0978 16.1985 35.6306 15.8907 35.1165 15.6845C34.6024 15.4784 34.052 15.378 33.4982 15.3896H28.8682V29.1836L30.6142 29.1866ZM30.6142 21.9045V17.0865H33.5422C34.1671 17.0841 34.7676 17.3293 35.2122 17.7685C35.6654 18.2191 35.9248 18.829 35.9348 19.4681C35.9449 20.1071 35.705 20.7249 35.2662 21.1896C35.046 21.4243 34.7784 21.6094 34.4812 21.7327C34.1839 21.856 33.8638 21.9145 33.5422 21.9045H30.6142ZM44.8282 20.4856C43.982 19.7554 42.8862 19.3809 41.7702 19.4405C41.0425 19.3967 40.3159 19.543 39.6619 19.8651C39.0079 20.1872 38.449 20.674 38.0402 21.2776L39.5792 22.2566C39.8217 21.8645 40.1624 21.5425 40.5675 21.3225C40.9727 21.1026 41.4283 20.9923 41.8892 21.0025C42.5104 21.004 43.1091 21.2352 43.5702 21.6515C43.7953 21.8471 43.9757 22.0887 44.0993 22.3601C44.2228 22.6315 44.2865 22.9263 44.2862 23.2245V23.6316C43.496 23.2254 42.615 23.0285 41.7272 23.0595C40.6837 23.0041 39.6532 23.3111 38.8102 23.9286C38.4554 24.2025 38.1707 24.5567 37.9795 24.9621C37.7883 25.3675 37.696 25.8125 37.7102 26.2605C37.6988 26.698 37.7853 27.1325 37.9636 27.5322C38.1418 27.9319 38.4071 28.2866 38.7402 28.5705C39.4482 29.194 40.3672 29.5244 41.3102 29.4945C41.8902 29.5001 42.4615 29.3537 42.9675 29.07C43.4734 28.7864 43.8963 28.3753 44.1942 27.8775H44.2702V29.1866H45.9402V23.3686C45.9708 22.8366 45.8874 22.3041 45.6956 21.8069C45.5039 21.3097 45.2081 20.8592 44.8282 20.4856ZM40.0902 27.4485C39.9108 27.3143 39.7654 27.1399 39.6655 26.9393C39.5657 26.7387 39.5142 26.5176 39.5152 26.2936C39.5162 26.0379 39.5807 25.7864 39.7029 25.5618C39.8251 25.3372 40.0011 25.1464 40.2152 25.0066C40.7385 24.6502 41.3614 24.4692 41.9942 24.4895C42.8059 24.4313 43.6122 24.6611 44.2712 25.1385C44.2714 25.5058 44.1942 25.8691 44.0446 26.2046C43.8951 26.54 43.6765 26.8402 43.4032 27.0856C43.1471 27.3465 42.8417 27.5538 42.5046 27.6954C42.1676 27.8371 41.8057 27.9102 41.4402 27.9106C40.9502 27.9178 40.473 27.7545 40.0902 27.4485ZM49.6962 33.3335L55.5292 19.7486H53.6292L50.9292 26.5246H50.8972L48.1322 19.7486H46.2322L50.0592 28.5815L47.8912 33.3335H49.6962Z" fill="#3C4043"/>
<path d="M24.5867 22.3873C24.5869 21.8493 24.5435 21.3122 24.4567 20.7812H17.0967V23.8282H21.3147C21.2296 24.314 21.0476 24.7777 20.7794 25.1916C20.5112 25.6055 20.1623 25.9611 19.7537 26.2372V28.2173H22.2687C23.0384 27.4595 23.642 26.5498 24.0411 25.5461C24.4401 24.5424 24.626 23.4667 24.5867 22.3873Z" fill="#4285F4"/>
<path d="M17.096 30.1315C19.0025 30.184 20.8557 29.4983 22.269 28.2175L19.754 26.2375C18.9662 26.7549 18.0392 27.0197 17.097 26.9965C16.1167 26.9795 15.1665 26.655 14.3806 26.0688C13.5946 25.4826 13.0127 24.6643 12.717 23.7295H10.126V25.7755C10.7659 27.0793 11.7578 28.1782 12.9895 28.948C14.2212 29.7178 15.6435 30.1277 17.096 30.1315Z" fill="#34A853"/>
<path d="M12.7167 23.7292C12.3916 22.7433 12.3916 21.6791 12.7167 20.6932V18.6582H10.1287C9.57777 19.7616 9.29102 20.9779 9.29102 22.2112C9.29102 23.4444 9.57777 24.6608 10.1287 25.7642L12.7167 23.7292Z" fill="#FBBC04"/>
<path d="M17.096 17.4274C17.6487 17.417 18.198 17.5167 18.7119 17.7207C19.2257 17.9246 19.6939 18.2288 20.089 18.6154L22.323 16.3494C20.9145 15.0106 19.0401 14.2728 17.097 14.2924C15.6434 14.2983 14.2204 14.7103 12.9885 15.4819C11.7566 16.2536 10.7648 17.3541 10.125 18.6594L12.716 20.7053C13.0093 19.7682 13.5903 18.9472 14.3765 18.3588C15.1627 17.7704 16.1142 17.4445 17.096 17.4274Z" fill="#EA4335"/>
</svg>
