<svg width="65" height="45" viewBox="0 0 65 45" fill="none" xmlns="http://www.w3.org/2000/svg">
<path d="M56.316 0.5H8.5C4.08172 0.5 0.5 4.08172 0.5 8.5V35.969C0.5 40.3873 4.08172 43.969 8.5 43.969H56.316C60.7343 43.969 64.316 40.3873 64.316 35.969V8.5C64.316 4.08172 60.7343 0.5 56.316 0.5Z" fill="white" stroke="#D9D9D9"/>
<path fill-rule="evenodd" clip-rule="evenodd" d="M32.8704 31.773C30.5984 33.7441 27.6913 34.8289 24.6834 34.828C21.3246 34.786 18.1175 33.4222 15.7572 31.0321C13.3968 28.642 12.0732 25.4182 12.0732 22.059C12.0732 18.6999 13.3968 15.4761 15.7572 13.086C18.1175 10.6959 21.3246 9.33208 24.6834 9.29004C27.6906 9.2878 30.5977 10.3708 32.8704 12.34C35.1432 10.3709 38.0502 9.28789 41.0574 9.29004C44.4163 9.33208 47.6233 10.6959 49.9837 13.086C52.3441 15.4761 53.6676 18.6999 53.6676 22.059C53.6676 25.4182 52.3441 28.642 49.9837 31.0321C47.6233 33.4222 44.4163 34.786 41.0574 34.828C38.0496 34.8289 35.1425 33.7441 32.8704 31.773Z" fill="#ED0006"/>
<path fill-rule="evenodd" clip-rule="evenodd" d="M32.8701 31.7731C34.2623 30.5654 35.3787 29.0726 36.1438 27.3959C36.909 25.7192 37.3049 23.8977 37.3049 22.0546C37.3049 20.2116 36.909 18.3901 36.1438 16.7134C35.3787 15.0366 34.2623 13.5439 32.8701 12.3361C35.1429 10.3669 38.0499 9.28389 41.0571 9.28614C44.416 9.32817 47.623 10.692 49.9834 13.0821C52.3437 15.4721 53.6673 18.696 53.6673 22.0551C53.6673 25.4143 52.3437 28.6381 49.9834 31.0282C47.623 33.4183 44.416 34.7821 41.0571 34.8241C38.0498 34.8261 35.1427 33.7428 32.8701 31.7731Z" fill="#F9A000"/>
<path fill-rule="evenodd" clip-rule="evenodd" d="M32.8704 31.7739C34.2625 30.5662 35.379 29.0734 36.1441 27.3967C36.9092 25.72 37.3052 23.8985 37.3052 22.0554C37.3052 20.2124 36.9092 18.3909 36.1441 16.7141C35.379 15.0374 34.2625 13.5447 32.8704 12.3369C31.4782 13.5447 30.3618 15.0374 29.5966 16.7141C28.8315 18.3909 28.4355 20.2124 28.4355 22.0554C28.4355 23.8985 28.8315 25.72 29.5966 27.3967C30.3618 29.0734 31.4782 30.5662 32.8704 31.7739Z" fill="#FF5E00"/>
</svg>
