<svg width="122" height="25" viewBox="0 0 122 25" fill="none" xmlns="http://www.w3.org/2000/svg">
<path d="M7.856 24.388C7.62864 24.3887 7.40342 24.3441 7.19346 24.2569C6.98349 24.1697 6.79297 24.0416 6.633 23.88L4.591 21.865L0.518 17.825C0.231882 17.5525 0.0521488 17.187 0.011 16.794C0.00376975 16.7296 9.75035e-05 16.6648 0 16.6L0 11.186C0.00164932 10.8354 0.124226 10.4961 0.347037 10.2253C0.569847 9.95462 0.879245 9.76906 1.223 9.7C1.31907 9.6804 1.41695 9.67102 1.515 9.672H4.647V17.487C4.647 18.0386 4.86597 18.5676 5.2558 18.9578C5.64563 19.348 6.17443 19.5675 6.726 19.568H26.417C26.6905 19.5683 26.9614 19.5146 27.2142 19.4101C27.467 19.3055 27.6967 19.1522 27.8901 18.9588C28.0836 18.7655 28.237 18.5359 28.3417 18.2831C28.4463 18.0304 28.5001 17.7595 28.5 17.486V9.671H31.642C31.8411 9.67087 32.0382 9.71 32.2222 9.78615C32.4061 9.8623 32.5732 9.97398 32.7139 10.1148C32.8546 10.2556 32.9662 10.4228 33.0422 10.6068C33.1183 10.7908 33.1573 10.9879 33.157 11.187V16.6C33.1571 16.6645 33.1534 16.7289 33.146 16.793C33.1009 17.1848 32.9218 17.549 32.639 17.824L26.511 23.88C26.2714 24.1216 25.9661 24.2874 25.633 24.357H25.617H8.843V24.385L7.856 24.388ZM104.973 22.4C104.792 22.4037 104.612 22.3647 104.449 22.2862C104.285 22.2076 104.142 22.0918 104.032 21.948L93.824 8.635V13.682H95.524C95.6266 13.6817 95.7283 13.7018 95.8232 13.7409C95.9181 13.7801 96.0043 13.8376 96.0768 13.9102C96.1494 13.9827 96.2069 14.0689 96.2461 14.1638C96.2852 14.2587 96.3053 14.3604 96.305 14.463V16.61C96.3054 16.7127 96.2855 16.8145 96.2464 16.9095C96.2073 17.0045 96.1498 17.0908 96.0772 17.1635C96.0046 17.2362 95.9184 17.2938 95.8234 17.333C95.7285 17.3722 95.6267 17.3923 95.524 17.392H93.824V21.792C93.822 21.8786 93.8061 21.9644 93.777 22.046C93.7657 22.1216 93.7307 22.1916 93.677 22.246C93.6319 22.2995 93.5676 22.3332 93.498 22.34C93.4189 22.3795 93.3323 22.402 93.244 22.406H90.532C90.4865 22.4068 90.4413 22.3984 90.3992 22.3812C90.3571 22.364 90.3189 22.3384 90.287 22.306C90.2358 22.2778 90.1942 22.2349 90.1674 22.1829C90.1407 22.1309 90.1301 22.0721 90.137 22.014V6.045H81.782L87.382 13.352C87.413 13.3789 87.4378 13.4122 87.4548 13.4496C87.4718 13.4869 87.4806 13.5275 87.4806 13.5685C87.4806 13.6095 87.4718 13.6501 87.4548 13.6874C87.4378 13.7248 87.413 13.7581 87.382 13.785L81.154 21.893C81.0449 22.036 80.9037 22.1515 80.7418 22.23C80.5799 22.3085 80.4019 22.3479 80.222 22.345H76.608C76.5632 22.3457 76.5191 22.3336 76.4809 22.3103C76.4427 22.2869 76.4118 22.2532 76.392 22.213C76.3705 22.1715 76.3609 22.1249 76.3642 22.0783C76.3676 22.0317 76.3838 21.987 76.411 21.949L82.836 13.559L78.336 7.664C78.17 7.46641 78.0799 7.21607 78.082 6.958V2.778C78.0812 2.73251 78.0896 2.68733 78.1068 2.64521C78.124 2.60309 78.1496 2.56491 78.182 2.533C78.2126 2.50208 78.2493 2.47778 78.2897 2.46161C78.3302 2.44544 78.3735 2.43775 78.417 2.439H93.429C93.5198 2.43737 93.6076 2.47108 93.674 2.533C93.6934 2.55209 93.7093 2.57442 93.721 2.599C93.8924 2.68064 94.0434 2.79954 94.163 2.947L106.337 18.8H120.891C120.94 18.7963 120.989 18.8078 121.031 18.8331C121.073 18.8583 121.106 18.8961 121.126 18.941C121.15 18.9811 121.16 19.0285 121.153 19.0749C121.146 19.1213 121.123 19.1639 121.088 19.195L118.988 21.954C118.878 22.0979 118.735 22.2137 118.571 22.2923C118.408 22.3708 118.228 22.4097 118.047 22.406L104.973 22.4ZM59.844 22.4C59.7988 22.4025 59.7537 22.3954 59.7114 22.3792C59.6692 22.363 59.6308 22.3381 59.5988 22.3062C59.5669 22.2742 59.542 22.2358 59.5258 22.1936C59.5096 22.1513 59.5025 22.1062 59.505 22.061V2.834C59.5037 2.74329 59.5373 2.65555 59.599 2.589C59.6313 2.55746 59.6697 2.53285 59.7118 2.51668C59.7539 2.50052 59.7989 2.49314 59.844 2.495H74.849C74.895 2.4885 74.942 2.49279 74.986 2.50752C75.0301 2.52226 75.0702 2.54705 75.1031 2.57992C75.136 2.6128 75.1607 2.65286 75.1755 2.69695C75.1902 2.74105 75.1945 2.78797 75.188 2.834V7.015C75.1904 7.27158 75.1113 7.5223 74.962 7.731L71.321 12.449L74.962 17.167C75.1113 17.3757 75.1905 17.6264 75.188 17.883V22.064C75.1945 22.11 75.1902 22.1569 75.1755 22.201C75.1607 22.2451 75.136 22.2852 75.1031 22.3181C75.0702 22.351 75.0301 22.3757 74.986 22.3905C74.942 22.4052 74.895 22.4095 74.849 22.403L59.844 22.4ZM63.136 18.8H71.462L66.777 12.68C66.7311 12.6189 66.7063 12.5445 66.7063 12.468C66.7063 12.3915 66.7311 12.3171 66.777 12.256L71.462 6.1H63.136V18.8ZM53.173 22.35C52.9919 22.3523 52.8128 22.3126 52.6495 22.2342C52.4863 22.1558 52.3434 22.0408 52.232 21.898L37.6 2.834C37.5724 2.79813 37.5559 2.75497 37.5525 2.70984C37.5491 2.66471 37.559 2.61958 37.581 2.58C37.6036 2.53512 37.6388 2.49785 37.6824 2.47279C37.7259 2.44773 37.7759 2.43598 37.826 2.439H41.438C41.6179 2.43611 41.7959 2.47551 41.9578 2.55402C42.1197 2.63253 42.2609 2.74795 42.37 2.891L52.581 16.206V2.778C52.5809 2.73141 52.591 2.68536 52.6105 2.64305C52.63 2.60074 52.6585 2.56319 52.694 2.533C52.7645 2.47194 52.8547 2.43854 52.948 2.439H55.874C55.9191 2.4367 55.9642 2.4439 56.0064 2.46012C56.0486 2.47635 56.0869 2.50124 56.1188 2.53319C56.1508 2.56514 56.1757 2.60343 56.1919 2.6456C56.2081 2.68777 56.2153 2.73288 56.213 2.778V22.006C56.2153 22.0511 56.2081 22.0962 56.1919 22.1384C56.1757 22.1806 56.1508 22.2189 56.1188 22.2508C56.0869 22.2828 56.0486 22.3077 56.0064 22.3239C55.9642 22.3401 55.9191 22.3473 55.874 22.345L53.173 22.35ZM9.784 17.835V15.635H7.584V13.418H9.784V11.218H12V13.418H14.2V15.631H12V17.831L9.784 17.835ZM23.04 17.044C22.8313 16.9723 22.6465 16.8444 22.5057 16.6745C22.365 16.5045 22.2739 16.2991 22.2423 16.0807C22.2108 15.8623 22.2401 15.6394 22.327 15.4366C22.4139 15.2338 22.555 15.0588 22.7349 14.931C22.9147 14.8032 23.1263 14.7274 23.3465 14.7121C23.5666 14.6967 23.7867 14.7423 23.9825 14.8439C24.1784 14.9455 24.3425 15.0991 24.4567 15.2879C24.5709 15.4767 24.6309 15.6933 24.63 15.914C24.6313 16.0587 24.6059 16.2025 24.555 16.338C24.4684 16.5649 24.3149 16.7602 24.115 16.898C23.915 17.0359 23.6779 17.1098 23.435 17.11C23.3004 17.1125 23.1665 17.0901 23.04 17.044ZM25.053 15.18C24.8518 15.0796 24.6828 14.9248 24.5653 14.733C24.4478 14.5413 24.3866 14.3204 24.3886 14.0956C24.3906 13.8707 24.4557 13.6509 24.5765 13.4613C24.6974 13.2717 24.869 13.1198 25.072 13.023C25.233 12.943 25.4102 12.9013 25.59 12.901C25.9083 12.901 26.2135 13.0274 26.4385 13.2525C26.6636 13.4775 26.79 13.7827 26.79 14.101C26.79 14.4193 26.6636 14.7245 26.4385 14.9495C26.2135 15.1746 25.9083 15.301 25.59 15.301C25.4037 15.3054 25.2191 15.2635 25.053 15.179V15.18ZM20.217 14.568C20.1526 14.423 20.1205 14.2657 20.123 14.107C20.1212 13.8259 20.2181 13.5532 20.3968 13.3362C20.5756 13.1193 20.8248 12.972 21.101 12.92C21.1727 12.9078 21.2453 12.9015 21.318 12.901C21.5352 12.9 21.7485 12.958 21.9354 13.0688C22.1222 13.1795 22.2754 13.3389 22.3788 13.5299C22.4821 13.7209 22.5317 13.9364 22.5223 14.1533C22.5128 14.3703 22.4446 14.5806 22.325 14.7619C22.2054 14.9432 22.0388 15.0886 21.8431 15.1826C21.6473 15.2767 21.4297 15.3158 21.2134 15.2959C20.9972 15.276 20.7904 15.1978 20.6151 15.0696C20.4397 14.9414 20.3025 14.7681 20.218 14.568H20.217ZM108.049 14.268C107.962 14.2685 107.876 14.2518 107.796 14.2189C107.716 14.186 107.643 14.1375 107.582 14.0762C107.521 14.0149 107.472 13.942 107.439 13.8618C107.406 13.7816 107.389 13.6957 107.39 13.609V2.834C107.388 2.78888 107.395 2.74377 107.411 2.7016C107.427 2.65943 107.452 2.62114 107.484 2.58919C107.516 2.55724 107.554 2.53235 107.597 2.51612C107.639 2.4999 107.684 2.4927 107.729 2.495H120.006C120.051 2.49487 120.095 2.50355 120.136 2.52054C120.177 2.53753 120.215 2.56249 120.246 2.594C120.278 2.6255 120.302 2.66293 120.319 2.70411C120.336 2.7453 120.345 2.78944 120.345 2.834V5.763C120.345 5.80756 120.336 5.8517 120.319 5.89289C120.302 5.93407 120.278 5.9715 120.246 6.003C120.215 6.03451 120.177 6.05947 120.136 6.07646C120.095 6.09345 120.051 6.10213 120.006 6.102H111.022V10.659H118.134C118.179 10.6587 118.223 10.6673 118.264 10.6843C118.305 10.7012 118.343 10.7262 118.374 10.7577C118.406 10.7892 118.431 10.8267 118.448 10.868C118.465 10.9092 118.473 10.9534 118.473 10.998V13.898C118.473 14.1427 118.36 14.265 118.134 14.265L108.049 14.268ZM22.315 12.768C22.2579 12.6308 22.229 12.4836 22.23 12.335C22.2307 12.0442 22.3369 11.7636 22.5289 11.5453C22.721 11.327 22.9857 11.1858 23.274 11.148C23.3271 11.1417 23.3805 11.1387 23.434 11.139C23.7343 11.1636 24.0144 11.3002 24.2186 11.5218C24.4227 11.7434 24.5361 12.0337 24.5361 12.335C24.5361 12.6363 24.4227 12.9266 24.2186 13.1482C24.0144 13.3698 23.7343 13.5064 23.434 13.531C23.1918 13.5342 22.9545 13.4628 22.7544 13.3264C22.5542 13.1901 22.4008 12.9955 22.315 12.769V12.768ZM20.038 9.668C19.8079 9.66998 19.5797 9.6264 19.3665 9.53976C19.1533 9.45313 18.9593 9.32516 18.7958 9.16323C18.6323 9.0013 18.5025 8.80861 18.4138 8.59627C18.3251 8.38392 18.2793 8.15613 18.279 7.926V6.2C18.2803 5.73463 18.4663 5.28881 18.7961 4.96049C19.126 4.63217 19.5726 4.4482 20.038 4.449H26.746C26.9763 4.44808 27.2046 4.49271 27.4176 4.58035C27.6306 4.66798 27.8242 4.79687 27.9873 4.95961C28.1503 5.12235 28.2795 5.31573 28.3675 5.5286C28.4555 5.74148 28.5005 5.96965 28.5 6.2V7.929C28.4996 8.15833 28.454 8.38532 28.3658 8.59702C28.2776 8.80871 28.1486 9.00095 27.9861 9.16273C27.8235 9.32452 27.6307 9.45268 27.4186 9.53989C27.2065 9.62711 26.9793 9.67166 26.75 9.671L20.038 9.668ZM6.312 9.668C6.08199 9.6684 5.85417 9.62337 5.6416 9.5355C5.42904 9.44763 5.23592 9.31865 5.07333 9.15596C4.91073 8.99328 4.78186 8.80008 4.69412 8.58747C4.60637 8.37486 4.56147 8.14701 4.562 7.917V6.187C4.56253 5.72294 4.74704 5.27803 5.07509 4.94979C5.40313 4.62156 5.84794 4.43679 6.312 4.436H10V0.829C9.99894 0.720682 10.0193 0.613225 10.06 0.512822C10.1007 0.41242 10.1608 0.321056 10.2369 0.243996C10.313 0.166937 10.4037 0.105704 10.5036 0.0638278C10.6035 0.0219513 10.7107 0.000258736 10.819 0L13.952 0C14.0603 0.000391272 14.1674 0.0221741 14.2673 0.0640972C14.3671 0.10602 14.4577 0.167257 14.5338 0.24429C14.6099 0.321324 14.67 0.412634 14.7107 0.512977C14.7514 0.61332 14.7719 0.720718 14.771 0.829V7.919C14.7763 8.12355 14.7424 8.32723 14.671 8.519V8.528C14.5462 8.86358 14.3215 9.15281 14.0271 9.35666C13.7328 9.56051 13.383 9.66918 13.025 9.668H6.312ZM14.771 7.919L14.77 8.119C14.7725 8.26041 14.738 8.40001 14.67 8.524C14.742 8.33067 14.777 8.12523 14.771 7.919Z" fill="url(#paint0_linear_1_4291)"/>
<defs>
<linearGradient id="paint0_linear_1_4291" x1="130.848" y1="18.5105" x2="57.5814" y2="-41.0354" gradientUnits="userSpaceOnUse">
<stop offset="0.01" stop-color="#FC00FF"/>
<stop offset="1" stop-color="#00DBDE"/>
</linearGradient>
</defs>
</svg>
