<svg width="16" height="19" viewBox="0 0 16 19" fill="none" xmlns="http://www.w3.org/2000/svg">
<path fill-rule="evenodd" clip-rule="evenodd" d="M7.44646 0.0798481C7.26713 0.169436 7.10201 0.285016 6.95646 0.422848C5.63752 1.6653 3.91918 2.39737 2.10945 2.48785C1.65162 2.47025 1.20131 2.60812 0.831812 2.87903C0.462312 3.14993 0.195377 3.53792 0.0744551 3.97985C-0.0248184 5.65872 -0.0248184 7.34198 0.0744551 9.02085C0.618455 13.9088 2.76446 16.7668 7.11546 18.3968C7.92246 18.6968 8.23246 18.6478 9.65845 17.9908C13.3785 16.2708 15.2265 13.5318 15.7235 9.00285C15.8235 7.33001 15.8235 5.65269 15.7235 3.97985C15.6024 3.53801 15.3354 3.15013 14.9659 2.87925C14.5965 2.60837 14.1463 2.47043 13.6885 2.48785C11.8793 2.39636 10.1616 1.66441 8.84246 0.422848C8.66998 0.232488 8.44448 0.0980973 8.19498 0.0369701C7.94548 -0.0241572 7.6834 -0.00922393 7.44246 0.0798481M8.80246 4.77985C9.64897 4.94944 10.4307 5.35383 11.0582 5.94678C11.6857 6.53973 12.1336 7.2973 12.3509 8.13286C12.5681 8.96843 12.5458 9.84825 12.2865 10.6717C12.0272 11.4952 11.5414 12.2291 10.8847 12.7895C10.2279 13.3499 9.42672 13.7141 8.5727 13.8406C7.71868 13.9671 6.8463 13.8507 6.05533 13.5047C5.26436 13.1587 4.58672 12.5971 4.0999 11.8841C3.61308 11.1711 3.33673 10.3355 3.30246 9.47285C3.27482 8.77727 3.40541 8.0845 3.68439 7.44672C3.96337 6.80895 4.38345 6.24281 4.913 5.79096C5.44255 5.33911 6.06774 5.01334 6.74147 4.8382C7.4152 4.66305 8.1199 4.6431 8.80246 4.77985ZM7.28445 5.79285C6.48941 5.92994 5.76456 6.33316 5.22881 6.93638C4.69306 7.53959 4.37822 8.30697 4.33594 9.11264C4.29366 9.91831 4.52645 10.7144 4.99612 11.3704C5.46579 12.0264 6.14445 12.5033 6.92078 12.7228C7.69711 12.9424 8.52501 12.8916 9.26867 12.5787C10.0123 12.2659 10.6276 11.7096 11.0135 11.0012C11.3995 10.2927 11.5332 9.47407 11.3927 8.67962C11.2522 7.88516 10.8459 7.16203 10.2405 6.62885C9.8418 6.27703 9.3692 6.01925 8.85756 5.87455C8.34593 5.72986 7.80833 5.70193 7.28445 5.79285ZM9.83345 7.77285C9.93937 7.82113 10.0263 7.90318 10.0806 8.00615C10.1349 8.10911 10.1535 8.22718 10.1335 8.34185C9.25134 9.36096 8.30969 10.327 7.31346 11.2348C7.02146 11.3888 6.88846 11.3148 6.19046 10.6098C5.51546 9.92785 5.46846 9.82285 5.69646 9.49985C5.94346 9.14985 6.22746 9.20585 6.73246 9.69985L7.06845 10.0308L8.14746 8.95785C9.48546 7.62685 9.51746 7.60485 9.83446 7.76885" fill="url(#paint0_linear_1_4126)"/>
<defs>
<linearGradient id="paint0_linear_1_4126" x1="16.7464" y1="4.6696e-07" x2="-4.31591" y2="13.9543" gradientUnits="userSpaceOnUse">
<stop offset="0.01" stop-color="#FC00FF"/>
<stop offset="1" stop-color="#00DBDE"/>
</linearGradient>
</defs>
</svg>
